<mxfile host="app.diagrams.net" modified="2024-07-04T14:59:31.606Z" agent="Mozilla/5.0 (Windows NT 10.0; Win64; x64) AppleWebKit/537.36 (KHTML, like Gecko) Chrome/126.0.0.0 Safari/537.36 Edg/126.0.0.0" etag="i0lqdSLFw4H_ftjOuTqh" version="24.6.4" type="github">
  <diagram name="Pagina-1" id="B8aEJMv9Pn-VPZOqLJiY">
    <mxGraphModel dx="1158" dy="2992" grid="1" gridSize="10" guides="1" tooltips="1" connect="1" arrows="1" fold="1" page="1" pageScale="1" pageWidth="827" pageHeight="1169" math="0" shadow="0">
      <root>
        <mxCell id="0" />
        <mxCell id="1" parent="0" />
        <mxCell id="-OwCE8M7icj2krIlMeeb-2" style="edgeStyle=orthogonalEdgeStyle;rounded=0;orthogonalLoop=1;jettySize=auto;html=1;exitX=0.25;exitY=0;exitDx=0;exitDy=0;entryX=1;entryY=0;entryDx=0;entryDy=0;endArrow=none;endFill=0;" edge="1" parent="1">
          <mxGeometry relative="1" as="geometry">
            <Array as="points">
              <mxPoint x="381" y="-1341" />
              <mxPoint x="381" y="-1500" />
              <mxPoint x="1851" y="-1500" />
            </Array>
            <mxPoint x="381.5" y="-929" as="sourcePoint" />
            <mxPoint x="1851" y="-911.5" as="targetPoint" />
          </mxGeometry>
        </mxCell>
        <mxCell id="-OwCE8M7icj2krIlMeeb-3" style="edgeStyle=orthogonalEdgeStyle;rounded=0;orthogonalLoop=1;jettySize=auto;html=1;exitX=0;exitY=0.5;exitDx=0;exitDy=0;entryX=1;entryY=0.5;entryDx=0;entryDy=0;endArrow=none;endFill=0;" edge="1" parent="1" source="-OwCE8M7icj2krIlMeeb-6" target="-OwCE8M7icj2krIlMeeb-9">
          <mxGeometry relative="1" as="geometry" />
        </mxCell>
        <mxCell id="-OwCE8M7icj2krIlMeeb-4" style="rounded=0;orthogonalLoop=1;jettySize=auto;html=1;exitX=0;exitY=0.25;exitDx=0;exitDy=0;entryX=1;entryY=0.5;entryDx=0;entryDy=0;endArrow=none;endFill=0;" edge="1" parent="1" source="-OwCE8M7icj2krIlMeeb-6" target="-OwCE8M7icj2krIlMeeb-12">
          <mxGeometry relative="1" as="geometry" />
        </mxCell>
        <mxCell id="-OwCE8M7icj2krIlMeeb-5" style="rounded=0;orthogonalLoop=1;jettySize=auto;html=1;exitX=0;exitY=1;exitDx=0;exitDy=0;entryX=1;entryY=0.5;entryDx=0;entryDy=0;endArrow=none;endFill=0;" edge="1" parent="1" source="-OwCE8M7icj2krIlMeeb-6" target="-OwCE8M7icj2krIlMeeb-136">
          <mxGeometry relative="1" as="geometry" />
        </mxCell>
        <mxCell id="-OwCE8M7icj2krIlMeeb-218" style="edgeStyle=orthogonalEdgeStyle;rounded=0;orthogonalLoop=1;jettySize=auto;html=1;exitX=0.94;exitY=1;exitDx=0;exitDy=0;entryX=0.5;entryY=0;entryDx=0;entryDy=0;endArrow=none;endFill=0;exitPerimeter=0;" edge="1" parent="1" source="-OwCE8M7icj2krIlMeeb-6" target="-OwCE8M7icj2krIlMeeb-217">
          <mxGeometry relative="1" as="geometry" />
        </mxCell>
        <mxCell id="-OwCE8M7icj2krIlMeeb-6" value="Utente" style="whiteSpace=wrap;html=1;align=center;" vertex="1" parent="1">
          <mxGeometry x="341" y="-928" width="162" height="40" as="geometry" />
        </mxCell>
        <mxCell id="-OwCE8M7icj2krIlMeeb-7" style="rounded=0;orthogonalLoop=1;jettySize=auto;html=1;exitX=1;exitY=0.5;exitDx=0;exitDy=0;entryX=-0.003;entryY=0.634;entryDx=0;entryDy=0;endArrow=none;endFill=0;entryPerimeter=0;" edge="1" parent="1" source="-OwCE8M7icj2krIlMeeb-8" target="-OwCE8M7icj2krIlMeeb-6">
          <mxGeometry relative="1" as="geometry" />
        </mxCell>
        <mxCell id="-OwCE8M7icj2krIlMeeb-8" value="password" style="ellipse;whiteSpace=wrap;html=1;align=right;labelPosition=left;verticalLabelPosition=middle;verticalAlign=middle;fillColor=#FFFFFF;strokeColor=default;fillStyle=auto;gradientColor=none;" vertex="1" parent="1">
          <mxGeometry x="310" y="-901" width="10" height="10" as="geometry" />
        </mxCell>
        <mxCell id="-OwCE8M7icj2krIlMeeb-9" value="email" style="ellipse;whiteSpace=wrap;html=1;align=right;labelPosition=left;verticalLabelPosition=middle;verticalAlign=middle;fillColor=#FFFFFF;strokeColor=default;fillStyle=auto;gradientColor=none;" vertex="1" parent="1">
          <mxGeometry x="310" y="-913" width="10" height="10" as="geometry" />
        </mxCell>
        <mxCell id="-OwCE8M7icj2krIlMeeb-10" style="rounded=0;orthogonalLoop=1;jettySize=auto;html=1;exitX=1;exitY=0.5;exitDx=0;exitDy=0;entryX=0.001;entryY=0.356;entryDx=0;entryDy=0;endArrow=none;endFill=0;entryPerimeter=0;" edge="1" parent="1" source="-OwCE8M7icj2krIlMeeb-11" target="-OwCE8M7icj2krIlMeeb-6">
          <mxGeometry relative="1" as="geometry" />
        </mxCell>
        <mxCell id="-OwCE8M7icj2krIlMeeb-11" value="cognome" style="ellipse;whiteSpace=wrap;html=1;align=right;labelPosition=left;verticalLabelPosition=middle;verticalAlign=middle;fillColor=#FFFFFF;strokeColor=default;fillStyle=auto;gradientColor=none;" vertex="1" parent="1">
          <mxGeometry x="310" y="-925" width="10" height="10" as="geometry" />
        </mxCell>
        <mxCell id="-OwCE8M7icj2krIlMeeb-12" value="nome" style="ellipse;whiteSpace=wrap;html=1;align=right;labelPosition=left;verticalLabelPosition=middle;verticalAlign=middle;fillColor=#FFFFFF;strokeColor=default;fillStyle=auto;gradientColor=none;" vertex="1" parent="1">
          <mxGeometry x="310" y="-937" width="10" height="10" as="geometry" />
        </mxCell>
        <mxCell id="-OwCE8M7icj2krIlMeeb-13" value="uuid_utente" style="ellipse;whiteSpace=wrap;html=1;align=right;fontStyle=4;labelBackgroundColor=none;labelPosition=left;verticalLabelPosition=middle;verticalAlign=middle;fillColor=#000000;" vertex="1" parent="1">
          <mxGeometry x="310" y="-949" width="10" height="10" as="geometry" />
        </mxCell>
        <mxCell id="-OwCE8M7icj2krIlMeeb-14" style="edgeStyle=orthogonalEdgeStyle;rounded=0;orthogonalLoop=1;jettySize=auto;html=1;exitX=1;exitY=0.75;exitDx=0;exitDy=0;entryX=0;entryY=0.5;entryDx=0;entryDy=0;endArrow=none;endFill=0;" edge="1" parent="1" source="-OwCE8M7icj2krIlMeeb-16" target="-OwCE8M7icj2krIlMeeb-117">
          <mxGeometry relative="1" as="geometry" />
        </mxCell>
        <mxCell id="-OwCE8M7icj2krIlMeeb-15" style="edgeStyle=orthogonalEdgeStyle;rounded=0;orthogonalLoop=1;jettySize=auto;html=1;exitX=0.5;exitY=1;exitDx=0;exitDy=0;entryX=0.5;entryY=1;entryDx=0;entryDy=0;endArrow=none;endFill=0;" edge="1" parent="1" source="-OwCE8M7icj2krIlMeeb-16" target="-OwCE8M7icj2krIlMeeb-80">
          <mxGeometry relative="1" as="geometry">
            <Array as="points">
              <mxPoint x="422" y="-440" />
              <mxPoint x="1821" y="-440" />
            </Array>
          </mxGeometry>
        </mxCell>
        <mxCell id="-OwCE8M7icj2krIlMeeb-16" value="Progetti" style="whiteSpace=wrap;html=1;align=center;" vertex="1" parent="1">
          <mxGeometry x="372" y="-559" width="100" height="40" as="geometry" />
        </mxCell>
        <mxCell id="-OwCE8M7icj2krIlMeeb-17" value="progetto" style="ellipse;whiteSpace=wrap;html=1;align=right;labelPosition=left;verticalLabelPosition=middle;verticalAlign=middle;fillColor=#FFFFFF;strokeColor=default;fillStyle=auto;gradientColor=none;" vertex="1" parent="1">
          <mxGeometry x="354" y="-550" width="10" height="10" as="geometry" />
        </mxCell>
        <mxCell id="-OwCE8M7icj2krIlMeeb-18" style="edgeStyle=orthogonalEdgeStyle;rounded=0;orthogonalLoop=1;jettySize=auto;html=1;exitX=1;exitY=0.5;exitDx=0;exitDy=0;entryX=0;entryY=0.75;entryDx=0;entryDy=0;endArrow=none;endFill=0;" edge="1" parent="1" source="-OwCE8M7icj2krIlMeeb-19" target="-OwCE8M7icj2krIlMeeb-16">
          <mxGeometry relative="1" as="geometry" />
        </mxCell>
        <mxCell id="-OwCE8M7icj2krIlMeeb-19" value="scadenza" style="ellipse;whiteSpace=wrap;html=1;align=right;labelPosition=left;verticalLabelPosition=middle;verticalAlign=middle;fillColor=#FFFFFF;strokeColor=default;fillStyle=auto;gradientColor=none;" vertex="1" parent="1">
          <mxGeometry x="354" y="-526" width="10" height="10" as="geometry" />
        </mxCell>
        <mxCell id="-OwCE8M7icj2krIlMeeb-20" value="descrizione" style="ellipse;whiteSpace=wrap;html=1;align=right;labelPosition=left;verticalLabelPosition=middle;verticalAlign=middle;fillColor=#FFFFFF;strokeColor=default;fillStyle=auto;gradientColor=none;" vertex="1" parent="1">
          <mxGeometry x="354" y="-538" width="10" height="10" as="geometry" />
        </mxCell>
        <mxCell id="-OwCE8M7icj2krIlMeeb-21" value="id_progetto" style="ellipse;whiteSpace=wrap;html=1;align=right;fontStyle=4;labelBackgroundColor=none;labelPosition=left;verticalLabelPosition=middle;verticalAlign=middle;fillColor=#000000;" vertex="1" parent="1">
          <mxGeometry x="354" y="-562" width="10" height="10" as="geometry" />
        </mxCell>
        <mxCell id="-OwCE8M7icj2krIlMeeb-22" value="" style="endArrow=none;html=1;rounded=0;entryX=0;entryY=0.25;entryDx=0;entryDy=0;exitX=1;exitY=0.5;exitDx=0;exitDy=0;edgeStyle=orthogonalEdgeStyle;" edge="1" parent="1" source="-OwCE8M7icj2krIlMeeb-21" target="-OwCE8M7icj2krIlMeeb-16">
          <mxGeometry width="50" height="50" relative="1" as="geometry">
            <mxPoint x="362" y="-571" as="sourcePoint" />
            <mxPoint x="402" y="-611" as="targetPoint" />
          </mxGeometry>
        </mxCell>
        <mxCell id="-OwCE8M7icj2krIlMeeb-23" value="" style="endArrow=none;html=1;rounded=0;entryX=1;entryY=0.5;entryDx=0;entryDy=0;exitX=-0.004;exitY=0.392;exitDx=0;exitDy=0;exitPerimeter=0;edgeStyle=orthogonalEdgeStyle;" edge="1" parent="1" source="-OwCE8M7icj2krIlMeeb-16" target="-OwCE8M7icj2krIlMeeb-17">
          <mxGeometry width="50" height="50" relative="1" as="geometry">
            <mxPoint x="342" y="-511" as="sourcePoint" />
            <mxPoint x="392" y="-561" as="targetPoint" />
          </mxGeometry>
        </mxCell>
        <mxCell id="-OwCE8M7icj2krIlMeeb-24" style="edgeStyle=orthogonalEdgeStyle;rounded=0;orthogonalLoop=1;jettySize=auto;html=1;exitX=0.416;exitY=1;exitDx=0;exitDy=0;endArrow=none;endFill=0;exitPerimeter=0;" edge="1" parent="1" source="-OwCE8M7icj2krIlMeeb-26" target="-OwCE8M7icj2krIlMeeb-119">
          <mxGeometry relative="1" as="geometry" />
        </mxCell>
        <mxCell id="-OwCE8M7icj2krIlMeeb-25" style="edgeStyle=orthogonalEdgeStyle;rounded=0;orthogonalLoop=1;jettySize=auto;html=1;exitX=0.25;exitY=1;exitDx=0;exitDy=0;entryX=1;entryY=0.5;entryDx=0;entryDy=0;endArrow=none;endFill=0;" edge="1" parent="1" source="-OwCE8M7icj2krIlMeeb-26" target="-OwCE8M7icj2krIlMeeb-43">
          <mxGeometry relative="1" as="geometry">
            <Array as="points">
              <mxPoint x="1258" y="-770" />
              <mxPoint x="1111" y="-770" />
              <mxPoint x="1111" y="-684" />
            </Array>
          </mxGeometry>
        </mxCell>
        <mxCell id="-OwCE8M7icj2krIlMeeb-261" style="rounded=0;orthogonalLoop=1;jettySize=auto;html=1;exitX=1;exitY=0.25;exitDx=0;exitDy=0;entryX=0;entryY=0.5;entryDx=0;entryDy=0;endArrow=none;endFill=0;" edge="1" parent="1" source="-OwCE8M7icj2krIlMeeb-26" target="-OwCE8M7icj2krIlMeeb-29">
          <mxGeometry relative="1" as="geometry" />
        </mxCell>
        <mxCell id="-OwCE8M7icj2krIlMeeb-26" value="Schede&lt;br&gt;Attività" style="whiteSpace=wrap;html=1;align=center;flipH=0;flipV=0;" vertex="1" parent="1">
          <mxGeometry x="1226" y="-929" width="184" height="40" as="geometry" />
        </mxCell>
        <mxCell id="-OwCE8M7icj2krIlMeeb-262" style="rounded=0;orthogonalLoop=1;jettySize=auto;html=1;exitX=0;exitY=0.5;exitDx=0;exitDy=0;entryX=1.003;entryY=0.357;entryDx=0;entryDy=0;endArrow=none;endFill=0;entryPerimeter=0;" edge="1" parent="1" source="-OwCE8M7icj2krIlMeeb-27" target="-OwCE8M7icj2krIlMeeb-26">
          <mxGeometry relative="1" as="geometry" />
        </mxCell>
        <mxCell id="-OwCE8M7icj2krIlMeeb-27" value="titolo" style="ellipse;whiteSpace=wrap;html=1;align=left;labelPosition=right;verticalLabelPosition=middle;verticalAlign=middle;fillColor=#FFFFFF;strokeColor=default;fillStyle=auto;gradientColor=none;" vertex="1" parent="1">
          <mxGeometry x="1425" y="-927.5" width="10" height="10" as="geometry" />
        </mxCell>
        <mxCell id="-OwCE8M7icj2krIlMeeb-263" style="rounded=0;orthogonalLoop=1;jettySize=auto;html=1;exitX=0;exitY=0.5;exitDx=0;exitDy=0;entryX=1;entryY=0.5;entryDx=0;entryDy=0;endArrow=none;endFill=0;" edge="1" parent="1" source="-OwCE8M7icj2krIlMeeb-28" target="-OwCE8M7icj2krIlMeeb-26">
          <mxGeometry relative="1" as="geometry" />
        </mxCell>
        <mxCell id="-OwCE8M7icj2krIlMeeb-28" value="descrizione" style="ellipse;whiteSpace=wrap;html=1;align=left;labelPosition=right;verticalLabelPosition=middle;verticalAlign=middle;fillColor=#FFFFFF;strokeColor=default;fillStyle=auto;gradientColor=none;" vertex="1" parent="1">
          <mxGeometry x="1425" y="-914.5" width="10" height="10" as="geometry" />
        </mxCell>
        <mxCell id="-OwCE8M7icj2krIlMeeb-29" value="uuid_scheda" style="ellipse;whiteSpace=wrap;html=1;align=left;fontStyle=4;labelBackgroundColor=none;labelPosition=right;verticalLabelPosition=middle;verticalAlign=middle;fillColor=#000000;" vertex="1" parent="1">
          <mxGeometry x="1425" y="-939.5" width="10" height="10" as="geometry" />
        </mxCell>
        <mxCell id="-OwCE8M7icj2krIlMeeb-222" style="edgeStyle=orthogonalEdgeStyle;rounded=0;orthogonalLoop=1;jettySize=auto;html=1;exitX=0.5;exitY=0;exitDx=0;exitDy=0;entryX=0.5;entryY=1;entryDx=0;entryDy=0;" edge="1" parent="1" source="-OwCE8M7icj2krIlMeeb-33" target="-OwCE8M7icj2krIlMeeb-41">
          <mxGeometry relative="1" as="geometry" />
        </mxCell>
        <mxCell id="-OwCE8M7icj2krIlMeeb-293" style="edgeStyle=orthogonalEdgeStyle;rounded=0;orthogonalLoop=1;jettySize=auto;html=1;exitX=1;exitY=0.5;exitDx=0;exitDy=0;endArrow=none;endFill=0;" edge="1" parent="1" source="-OwCE8M7icj2krIlMeeb-33" target="-OwCE8M7icj2krIlMeeb-292">
          <mxGeometry relative="1" as="geometry" />
        </mxCell>
        <mxCell id="-OwCE8M7icj2krIlMeeb-33" value="Team" style="whiteSpace=wrap;html=1;align=center;" vertex="1" parent="1">
          <mxGeometry x="372" y="-726" width="100" height="40" as="geometry" />
        </mxCell>
        <mxCell id="-OwCE8M7icj2krIlMeeb-34" style="rounded=0;orthogonalLoop=1;jettySize=auto;html=1;exitX=1;exitY=0.5;exitDx=0;exitDy=0;entryX=0;entryY=0.75;entryDx=0;entryDy=0;endArrow=none;endFill=0;edgeStyle=orthogonalEdgeStyle;" edge="1" parent="1" source="-OwCE8M7icj2krIlMeeb-35" target="-OwCE8M7icj2krIlMeeb-33">
          <mxGeometry relative="1" as="geometry" />
        </mxCell>
        <mxCell id="-OwCE8M7icj2krIlMeeb-35" value="numero_progetti" style="ellipse;whiteSpace=wrap;html=1;align=right;labelPosition=left;verticalLabelPosition=middle;verticalAlign=middle;fillColor=#FFFFFF;strokeColor=default;fillStyle=auto;gradientColor=none;" vertex="1" parent="1">
          <mxGeometry x="356" y="-696" width="10" height="10" as="geometry" />
        </mxCell>
        <mxCell id="-OwCE8M7icj2krIlMeeb-36" style="rounded=0;orthogonalLoop=1;jettySize=auto;html=1;exitX=1;exitY=0.5;exitDx=0;exitDy=0;entryX=0;entryY=0.25;entryDx=0;entryDy=0;endArrow=none;endFill=0;edgeStyle=orthogonalEdgeStyle;" edge="1" parent="1" source="-OwCE8M7icj2krIlMeeb-37" target="-OwCE8M7icj2krIlMeeb-33">
          <mxGeometry relative="1" as="geometry" />
        </mxCell>
        <mxCell id="-OwCE8M7icj2krIlMeeb-37" value="sigla" style="ellipse;whiteSpace=wrap;html=1;align=right;fontStyle=4;labelBackgroundColor=none;labelPosition=left;verticalLabelPosition=middle;verticalAlign=middle;fillColor=#000000;" vertex="1" parent="1">
          <mxGeometry x="356" y="-726" width="10" height="10" as="geometry" />
        </mxCell>
        <mxCell id="-OwCE8M7icj2krIlMeeb-38" style="edgeStyle=orthogonalEdgeStyle;rounded=0;orthogonalLoop=1;jettySize=auto;html=1;exitX=0.75;exitY=1;exitDx=0;exitDy=0;endArrow=none;endFill=0;" edge="1" parent="1" source="-OwCE8M7icj2krIlMeeb-40" target="-OwCE8M7icj2krIlMeeb-120">
          <mxGeometry relative="1" as="geometry" />
        </mxCell>
        <mxCell id="-OwCE8M7icj2krIlMeeb-39" style="edgeStyle=orthogonalEdgeStyle;rounded=0;orthogonalLoop=1;jettySize=auto;html=1;exitX=0.75;exitY=0;exitDx=0;exitDy=0;entryX=0.5;entryY=0;entryDx=0;entryDy=0;endArrow=none;endFill=0;" edge="1" parent="1" source="-OwCE8M7icj2krIlMeeb-40" target="-OwCE8M7icj2krIlMeeb-80">
          <mxGeometry relative="1" as="geometry" />
        </mxCell>
        <mxCell id="-OwCE8M7icj2krIlMeeb-40" value="Commenti" style="whiteSpace=wrap;html=1;align=center;" vertex="1" parent="1">
          <mxGeometry x="1239" y="-1389.71" width="211" height="40" as="geometry" />
        </mxCell>
        <mxCell id="-OwCE8M7icj2krIlMeeb-221" style="edgeStyle=orthogonalEdgeStyle;rounded=0;orthogonalLoop=1;jettySize=auto;html=1;exitX=0.5;exitY=0;exitDx=0;exitDy=0;entryX=0.5;entryY=1;entryDx=0;entryDy=0;endArrow=none;endFill=0;" edge="1" parent="1" source="-OwCE8M7icj2krIlMeeb-41" target="-OwCE8M7icj2krIlMeeb-6">
          <mxGeometry relative="1" as="geometry" />
        </mxCell>
        <mxCell id="-OwCE8M7icj2krIlMeeb-41" value="Appartenenza" style="shape=rhombus;perimeter=rhombusPerimeter;whiteSpace=wrap;html=1;align=center;" vertex="1" parent="1">
          <mxGeometry x="362" y="-814" width="120" height="60" as="geometry" />
        </mxCell>
        <mxCell id="-OwCE8M7icj2krIlMeeb-42" style="edgeStyle=orthogonalEdgeStyle;rounded=0;orthogonalLoop=1;jettySize=auto;html=1;exitX=0;exitY=0.5;exitDx=0;exitDy=0;entryX=1;entryY=0.5;entryDx=0;entryDy=0;endArrow=none;endFill=0;" edge="1" parent="1" source="-OwCE8M7icj2krIlMeeb-43" target="-OwCE8M7icj2krIlMeeb-16">
          <mxGeometry relative="1" as="geometry" />
        </mxCell>
        <mxCell id="-OwCE8M7icj2krIlMeeb-43" value="Documentazione" style="shape=rhombus;perimeter=rhombusPerimeter;whiteSpace=wrap;html=1;align=center;" vertex="1" parent="1">
          <mxGeometry x="811" y="-714" width="120" height="60" as="geometry" />
        </mxCell>
        <mxCell id="-OwCE8M7icj2krIlMeeb-44" value="Responsabilità" style="shape=rhombus;perimeter=rhombusPerimeter;whiteSpace=wrap;html=1;align=center;" vertex="1" parent="1">
          <mxGeometry x="362" y="-654" width="120" height="60" as="geometry" />
        </mxCell>
        <mxCell id="-OwCE8M7icj2krIlMeeb-45" value="" style="endArrow=none;html=1;rounded=0;entryX=0.5;entryY=1;entryDx=0;entryDy=0;exitX=0.5;exitY=0;exitDx=0;exitDy=0;" edge="1" parent="1" source="-OwCE8M7icj2krIlMeeb-44" target="-OwCE8M7icj2krIlMeeb-33">
          <mxGeometry width="50" height="50" relative="1" as="geometry">
            <mxPoint x="479" y="-472" as="sourcePoint" />
            <mxPoint x="529" y="-522" as="targetPoint" />
          </mxGeometry>
        </mxCell>
        <mxCell id="-OwCE8M7icj2krIlMeeb-46" value="" style="endArrow=none;html=1;rounded=0;entryX=0.5;entryY=1;entryDx=0;entryDy=0;exitX=0.5;exitY=0;exitDx=0;exitDy=0;" edge="1" parent="1" source="-OwCE8M7icj2krIlMeeb-16" target="-OwCE8M7icj2krIlMeeb-44">
          <mxGeometry width="50" height="50" relative="1" as="geometry">
            <mxPoint x="432" y="-644" as="sourcePoint" />
            <mxPoint x="432" y="-685" as="targetPoint" />
          </mxGeometry>
        </mxCell>
        <mxCell id="-OwCE8M7icj2krIlMeeb-52" value="CreazioneScheda" style="shape=rhombus;perimeter=rhombusPerimeter;whiteSpace=wrap;html=1;align=center;" vertex="1" parent="1">
          <mxGeometry x="751" y="-937" width="120" height="60" as="geometry" />
        </mxCell>
        <mxCell id="-OwCE8M7icj2krIlMeeb-53" value="" style="endArrow=none;html=1;rounded=0;entryX=0;entryY=0.5;entryDx=0;entryDy=0;exitX=1;exitY=0.5;exitDx=0;exitDy=0;" edge="1" parent="1" source="-OwCE8M7icj2krIlMeeb-6" target="-OwCE8M7icj2krIlMeeb-52">
          <mxGeometry width="50" height="50" relative="1" as="geometry">
            <mxPoint x="503" y="-905" as="sourcePoint" />
            <mxPoint x="588" y="-952" as="targetPoint" />
          </mxGeometry>
        </mxCell>
        <mxCell id="-OwCE8M7icj2krIlMeeb-54" value="" style="endArrow=none;html=1;rounded=0;entryX=0;entryY=0.5;entryDx=0;entryDy=0;exitX=1;exitY=0.5;exitDx=0;exitDy=0;" edge="1" parent="1" source="-OwCE8M7icj2krIlMeeb-52" target="-OwCE8M7icj2krIlMeeb-26">
          <mxGeometry width="50" height="50" relative="1" as="geometry">
            <mxPoint x="662" y="-804" as="sourcePoint" />
            <mxPoint x="747" y="-851" as="targetPoint" />
          </mxGeometry>
        </mxCell>
        <mxCell id="-OwCE8M7icj2krIlMeeb-55" style="edgeStyle=elbowEdgeStyle;shape=connector;rounded=0;orthogonalLoop=1;jettySize=auto;html=1;exitX=1;exitY=0.5;exitDx=0;exitDy=0;labelBackgroundColor=default;strokeColor=default;align=center;verticalAlign=middle;fontFamily=Helvetica;fontSize=11;fontColor=default;endArrow=none;sourcePerimeterSpacing=0;targetPerimeterSpacing=0;entryX=0;entryY=0.5;entryDx=0;entryDy=0;" edge="1" parent="1" source="-OwCE8M7icj2krIlMeeb-57" target="-OwCE8M7icj2krIlMeeb-40">
          <mxGeometry relative="1" as="geometry">
            <mxPoint x="1021" y="-1347" as="targetPoint" />
          </mxGeometry>
        </mxCell>
        <mxCell id="-OwCE8M7icj2krIlMeeb-56" style="edgeStyle=orthogonalEdgeStyle;rounded=0;orthogonalLoop=1;jettySize=auto;html=1;exitX=0;exitY=0.5;exitDx=0;exitDy=0;endArrow=none;endFill=0;" edge="1" parent="1" source="-OwCE8M7icj2krIlMeeb-57" target="-OwCE8M7icj2krIlMeeb-6">
          <mxGeometry relative="1" as="geometry" />
        </mxCell>
        <mxCell id="-OwCE8M7icj2krIlMeeb-57" value="Operazione&lt;br&gt;Commento" style="shape=rhombus;perimeter=rhombusPerimeter;whiteSpace=wrap;html=1;align=center;" vertex="1" parent="1">
          <mxGeometry x="581" y="-1400" width="120" height="60" as="geometry" />
        </mxCell>
        <mxCell id="-OwCE8M7icj2krIlMeeb-58" style="rounded=0;orthogonalLoop=1;jettySize=auto;html=1;exitX=0;exitY=0.5;exitDx=0;exitDy=0;entryX=0.997;entryY=0.656;entryDx=0;entryDy=0;endArrow=none;endFill=0;entryPerimeter=0;" edge="1" parent="1" source="-OwCE8M7icj2krIlMeeb-59" target="-OwCE8M7icj2krIlMeeb-40">
          <mxGeometry relative="1" as="geometry" />
        </mxCell>
        <mxCell id="-OwCE8M7icj2krIlMeeb-59" value="contenuto" style="ellipse;whiteSpace=wrap;html=1;align=left;labelPosition=right;verticalLabelPosition=middle;verticalAlign=middle;fillColor=#FFFFFF;strokeColor=default;fillStyle=auto;gradientColor=none;" vertex="1" parent="1">
          <mxGeometry x="1461" y="-1367.71" width="10" height="10" as="geometry" />
        </mxCell>
        <mxCell id="-OwCE8M7icj2krIlMeeb-60" value="id_commento" style="ellipse;whiteSpace=wrap;html=1;align=left;fontStyle=4;labelBackgroundColor=none;labelPosition=right;verticalLabelPosition=middle;verticalAlign=middle;fillColor=#000000;" vertex="1" parent="1">
          <mxGeometry x="1461" y="-1379.71" width="10" height="10" as="geometry" />
        </mxCell>
        <mxCell id="-OwCE8M7icj2krIlMeeb-61" value="" style="endArrow=none;html=1;rounded=0;exitX=0;exitY=0.5;exitDx=0;exitDy=0;entryX=0.997;entryY=0.377;entryDx=0;entryDy=0;entryPerimeter=0;" edge="1" parent="1" source="-OwCE8M7icj2krIlMeeb-60" target="-OwCE8M7icj2krIlMeeb-40">
          <mxGeometry width="50" height="50" relative="1" as="geometry">
            <mxPoint x="1235.0000000000002" y="-1397.71" as="sourcePoint" />
            <mxPoint x="1341" y="-1382.71" as="targetPoint" />
          </mxGeometry>
        </mxCell>
        <mxCell id="-OwCE8M7icj2krIlMeeb-69" style="edgeStyle=none;shape=connector;curved=0;rounded=0;orthogonalLoop=1;jettySize=auto;html=1;exitX=1;exitY=0.25;exitDx=0;exitDy=0;entryX=0;entryY=0.5;entryDx=0;entryDy=0;labelBackgroundColor=default;strokeColor=default;align=center;verticalAlign=middle;fontFamily=Helvetica;fontSize=11;fontColor=default;endArrow=none;sourcePerimeterSpacing=0;targetPerimeterSpacing=0;" edge="1" parent="1" source="-OwCE8M7icj2krIlMeeb-71" target="-OwCE8M7icj2krIlMeeb-72">
          <mxGeometry relative="1" as="geometry" />
        </mxCell>
        <mxCell id="-OwCE8M7icj2krIlMeeb-70" style="edgeStyle=orthogonalEdgeStyle;rounded=0;orthogonalLoop=1;jettySize=auto;html=1;exitX=0;exitY=0.5;exitDx=0;exitDy=0;entryX=1;entryY=0.5;entryDx=0;entryDy=0;endArrow=none;endFill=0;" edge="1" parent="1" source="-OwCE8M7icj2krIlMeeb-71" target="-OwCE8M7icj2krIlMeeb-80">
          <mxGeometry relative="1" as="geometry" />
        </mxCell>
        <mxCell id="-OwCE8M7icj2krIlMeeb-71" value="Report" style="whiteSpace=wrap;html=1;align=center;fontFamily=Helvetica;fontSize=11;fontColor=default;" vertex="1" parent="1">
          <mxGeometry x="2041" y="-915.5" width="170" height="40" as="geometry" />
        </mxCell>
        <mxCell id="-OwCE8M7icj2krIlMeeb-72" value="id_report" style="ellipse;whiteSpace=wrap;html=1;align=left;labelPosition=right;verticalLabelPosition=middle;verticalAlign=middle;fillColor=#000000;strokeColor=default;fillStyle=auto;gradientColor=none;fontFamily=Helvetica;fontSize=11;fontColor=default;" vertex="1" parent="1">
          <mxGeometry x="2226" y="-920.5" width="10" height="10" as="geometry" />
        </mxCell>
        <mxCell id="-OwCE8M7icj2krIlMeeb-73" value="tipo_azione&amp;nbsp;" style="ellipse;html=1;align=left;labelPosition=right;verticalLabelPosition=middle;verticalAlign=middle;fillColor=#FFFFFF;strokeColor=default;fillStyle=auto;gradientColor=none;fontFamily=Helvetica;fontSize=11;fontColor=default;" vertex="1" parent="1">
          <mxGeometry x="2226" y="-908.5" width="10" height="10" as="geometry" />
        </mxCell>
        <mxCell id="-OwCE8M7icj2krIlMeeb-74" value="" style="edgeStyle=none;shape=connector;curved=0;rounded=0;orthogonalLoop=1;jettySize=auto;html=1;labelBackgroundColor=default;strokeColor=default;align=center;verticalAlign=middle;fontFamily=Helvetica;fontSize=11;fontColor=default;endArrow=none;sourcePerimeterSpacing=0;targetPerimeterSpacing=0;" edge="1" parent="1" source="-OwCE8M7icj2krIlMeeb-75" target="-OwCE8M7icj2krIlMeeb-71">
          <mxGeometry relative="1" as="geometry" />
        </mxCell>
        <mxCell id="-OwCE8M7icj2krIlMeeb-75" value="timestamp" style="ellipse;whiteSpace=wrap;html=1;align=left;labelPosition=right;verticalLabelPosition=middle;verticalAlign=middle;fillColor=#FFFFFF;strokeColor=default;fillStyle=auto;gradientColor=none;fontFamily=Helvetica;fontSize=11;fontColor=default;" vertex="1" parent="1">
          <mxGeometry x="2226" y="-896.5" width="10" height="10" as="geometry" />
        </mxCell>
        <mxCell id="-OwCE8M7icj2krIlMeeb-76" value="" style="edgeStyle=none;shape=connector;curved=0;rounded=0;orthogonalLoop=1;jettySize=auto;html=1;labelBackgroundColor=default;strokeColor=default;align=center;verticalAlign=middle;fontFamily=Helvetica;fontSize=11;fontColor=default;endArrow=none;sourcePerimeterSpacing=0;targetPerimeterSpacing=0;" edge="1" parent="1" source="-OwCE8M7icj2krIlMeeb-77" target="-OwCE8M7icj2krIlMeeb-71">
          <mxGeometry relative="1" as="geometry" />
        </mxCell>
        <mxCell id="-OwCE8M7icj2krIlMeeb-77" value="descrizione" style="ellipse;whiteSpace=wrap;html=1;align=left;labelPosition=right;verticalLabelPosition=middle;verticalAlign=middle;fillColor=#FFFFFF;strokeColor=default;fillStyle=auto;gradientColor=none;fontFamily=Helvetica;fontSize=11;fontColor=default;" vertex="1" parent="1">
          <mxGeometry x="2226" y="-883.5" width="10" height="10" as="geometry" />
        </mxCell>
        <mxCell id="-OwCE8M7icj2krIlMeeb-78" style="edgeStyle=orthogonalEdgeStyle;rounded=0;orthogonalLoop=1;jettySize=auto;html=1;exitX=0.5;exitY=0;exitDx=0;exitDy=0;entryX=0.17;entryY=0.99;entryDx=0;entryDy=0;endArrow=none;endFill=0;entryPerimeter=0;" edge="1" parent="1" source="-OwCE8M7icj2krIlMeeb-79" target="-OwCE8M7icj2krIlMeeb-71">
          <mxGeometry relative="1" as="geometry" />
        </mxCell>
        <mxCell id="-OwCE8M7icj2krIlMeeb-79" value="progetto" style="ellipse;whiteSpace=wrap;html=1;align=center;labelPosition=center;verticalLabelPosition=bottom;verticalAlign=top;fillStyle=auto;fontFamily=Helvetica;fontSize=11;" vertex="1" parent="1">
          <mxGeometry x="2065" y="-865" width="10" height="10" as="geometry" />
        </mxCell>
        <mxCell id="-OwCE8M7icj2krIlMeeb-80" value="Generazione" style="shape=rhombus;perimeter=rhombusPerimeter;whiteSpace=wrap;html=1;align=center;" vertex="1" parent="1">
          <mxGeometry x="1761" y="-925.5" width="120" height="60" as="geometry" />
        </mxCell>
        <mxCell id="-OwCE8M7icj2krIlMeeb-81" style="edgeStyle=none;shape=connector;curved=0;rounded=0;orthogonalLoop=1;jettySize=auto;html=1;exitX=0;exitY=0.5;exitDx=0;exitDy=0;entryX=1.001;entryY=0.364;entryDx=0;entryDy=0;entryPerimeter=0;labelBackgroundColor=default;strokeColor=default;align=center;verticalAlign=middle;fontFamily=Helvetica;fontSize=11;fontColor=default;endArrow=none;sourcePerimeterSpacing=0;targetPerimeterSpacing=0;" edge="1" parent="1" source="-OwCE8M7icj2krIlMeeb-73" target="-OwCE8M7icj2krIlMeeb-71">
          <mxGeometry relative="1" as="geometry" />
        </mxCell>
        <mxCell id="-OwCE8M7icj2krIlMeeb-82" style="edgeStyle=orthogonalEdgeStyle;shape=connector;rounded=1;orthogonalLoop=1;jettySize=auto;html=1;exitX=0;exitY=0.5;exitDx=0;exitDy=0;labelBackgroundColor=default;strokeColor=default;align=center;verticalAlign=middle;fontFamily=Helvetica;fontSize=11;fontColor=default;endArrow=none;sourcePerimeterSpacing=0;targetPerimeterSpacing=0;" edge="1" parent="1" source="-OwCE8M7icj2krIlMeeb-83">
          <mxGeometry relative="1" as="geometry">
            <mxPoint x="2011" y="-905.5" as="targetPoint" />
            <mxPoint x="2101" y="-872.5" as="sourcePoint" />
          </mxGeometry>
        </mxCell>
        <mxCell id="-OwCE8M7icj2krIlMeeb-83" value="" style="ellipse;whiteSpace=wrap;html=1;align=right;fontStyle=4;labelBackgroundColor=none;labelPosition=left;verticalLabelPosition=middle;verticalAlign=middle;fillColor=#000000;fontFamily=Helvetica;fontSize=11;fontColor=default;" vertex="1" parent="1">
          <mxGeometry x="2091" y="-872.5" width="10" height="10" as="geometry" />
        </mxCell>
        <mxCell id="-OwCE8M7icj2krIlMeeb-86" value="(0,1)" style="text;html=1;strokeColor=none;fillColor=none;align=center;verticalAlign=middle;whiteSpace=wrap;rounded=0;fontSize=11;fontFamily=Helvetica;fontColor=default;" vertex="1" parent="1">
          <mxGeometry x="370" y="-839.5" width="60" height="30" as="geometry" />
        </mxCell>
        <mxCell id="-OwCE8M7icj2krIlMeeb-87" value="(1,N)" style="text;html=1;strokeColor=none;fillColor=none;align=center;verticalAlign=middle;whiteSpace=wrap;rounded=0;movable=1;resizable=1;rotatable=1;deletable=1;editable=1;locked=0;connectable=1;fontSize=11;fontFamily=Helvetica;fontColor=default;" vertex="1" parent="1">
          <mxGeometry x="361" y="-760" width="60" height="30" as="geometry" />
        </mxCell>
        <mxCell id="-OwCE8M7icj2krIlMeeb-88" value="(0,N)" style="text;html=1;strokeColor=none;fillColor=none;align=center;verticalAlign=middle;whiteSpace=wrap;rounded=0;fontSize=11;fontFamily=Helvetica;fontColor=default;" vertex="1" parent="1">
          <mxGeometry x="414" y="-676" width="60" height="30" as="geometry" />
        </mxCell>
        <mxCell id="-OwCE8M7icj2krIlMeeb-89" value="(0,1)" style="text;html=1;strokeColor=none;fillColor=none;align=center;verticalAlign=middle;whiteSpace=wrap;rounded=0;fontSize=11;fontFamily=Helvetica;fontColor=default;" vertex="1" parent="1">
          <mxGeometry x="413" y="-592" width="60" height="30" as="geometry" />
        </mxCell>
        <mxCell id="-OwCE8M7icj2krIlMeeb-90" value="(0,N)" style="text;html=1;strokeColor=none;fillColor=none;align=center;verticalAlign=middle;whiteSpace=wrap;rounded=0;movable=1;resizable=1;rotatable=1;deletable=1;editable=1;locked=0;connectable=1;fontSize=11;fontFamily=Helvetica;fontColor=default;" vertex="1" parent="1">
          <mxGeometry x="731" y="-717" width="60" height="30" as="geometry" />
        </mxCell>
        <mxCell id="-OwCE8M7icj2krIlMeeb-91" value="(1,1)" style="text;html=1;strokeColor=none;fillColor=none;align=center;verticalAlign=middle;whiteSpace=wrap;rounded=0;fontSize=11;fontFamily=Helvetica;fontColor=default;" vertex="1" parent="1">
          <mxGeometry x="1286" y="-770" width="60" height="30" as="geometry" />
        </mxCell>
        <mxCell id="-OwCE8M7icj2krIlMeeb-92" value="(0,N)" style="text;html=1;strokeColor=none;fillColor=none;align=center;verticalAlign=middle;whiteSpace=wrap;rounded=0;fontSize=11;fontFamily=Helvetica;fontColor=default;" vertex="1" parent="1">
          <mxGeometry x="513" y="-937" width="60" height="30" as="geometry" />
        </mxCell>
        <mxCell id="-OwCE8M7icj2krIlMeeb-93" value="(0,1)" style="text;html=1;strokeColor=none;fillColor=none;align=center;verticalAlign=middle;whiteSpace=wrap;rounded=0;fontSize=11;fontFamily=Helvetica;fontColor=default;" vertex="1" parent="1">
          <mxGeometry x="921" y="-935.5" width="60" height="30" as="geometry" />
        </mxCell>
        <mxCell id="-OwCE8M7icj2krIlMeeb-95" value="(0,N)" style="text;html=1;strokeColor=none;fillColor=none;align=center;verticalAlign=middle;whiteSpace=wrap;rounded=0;fontSize=11;fontFamily=Helvetica;fontColor=default;" vertex="1" parent="1">
          <mxGeometry x="513" y="-1400" width="60" height="30" as="geometry" />
        </mxCell>
        <mxCell id="-OwCE8M7icj2krIlMeeb-96" value="(1,1)" style="text;html=1;strokeColor=none;fillColor=none;align=center;verticalAlign=middle;whiteSpace=wrap;rounded=0;fontSize=11;fontFamily=Helvetica;fontColor=default;" vertex="1" parent="1">
          <mxGeometry x="791" y="-1400" width="60" height="30" as="geometry" />
        </mxCell>
        <mxCell id="-OwCE8M7icj2krIlMeeb-98" style="edgeStyle=none;shape=connector;curved=0;rounded=1;orthogonalLoop=1;jettySize=auto;html=1;labelBackgroundColor=default;strokeColor=default;align=center;verticalAlign=middle;fontFamily=Helvetica;fontSize=11;fontColor=default;endArrow=none;sourcePerimeterSpacing=0;targetPerimeterSpacing=0;" edge="1" parent="1" target="-OwCE8M7icj2krIlMeeb-100">
          <mxGeometry relative="1" as="geometry">
            <mxPoint x="1281" y="-1407.71" as="sourcePoint" />
            <Array as="points">
              <mxPoint x="1149" y="-1407.71" />
            </Array>
          </mxGeometry>
        </mxCell>
        <mxCell id="-OwCE8M7icj2krIlMeeb-99" value="mittente" style="ellipse;whiteSpace=wrap;html=1;align=center;labelPosition=center;verticalLabelPosition=top;verticalAlign=bottom;fillStyle=auto;fontFamily=Helvetica;fontSize=11;" vertex="1" parent="1">
          <mxGeometry x="1259" y="-1427.71" width="10" height="10" as="geometry" />
        </mxCell>
        <mxCell id="-OwCE8M7icj2krIlMeeb-100" value="" style="ellipse;whiteSpace=wrap;html=1;align=right;fontStyle=4;labelBackgroundColor=none;labelPosition=left;verticalLabelPosition=middle;verticalAlign=middle;fillColor=#000000;fontFamily=Helvetica;fontSize=11;fontColor=default;" vertex="1" parent="1">
          <mxGeometry x="1144" y="-1355.71" width="10" height="10" as="geometry" />
        </mxCell>
        <mxCell id="-OwCE8M7icj2krIlMeeb-101" value="modificato_da" style="ellipse;whiteSpace=wrap;html=1;align=center;labelPosition=center;verticalLabelPosition=bottom;verticalAlign=top;fillStyle=auto;fontFamily=Helvetica;fontSize=11;" vertex="1" parent="1">
          <mxGeometry x="1259" y="-1321.71" width="10" height="10" as="geometry" />
        </mxCell>
        <mxCell id="-OwCE8M7icj2krIlMeeb-102" value="" style="ellipse;whiteSpace=wrap;html=1;align=right;fontStyle=4;labelBackgroundColor=none;labelPosition=left;verticalLabelPosition=middle;verticalAlign=middle;fillColor=#000000;fontFamily=Helvetica;fontSize=11;fontColor=default;" vertex="1" parent="1">
          <mxGeometry x="1180" y="-1399.71" width="10" height="10" as="geometry" />
        </mxCell>
        <mxCell id="-OwCE8M7icj2krIlMeeb-103" style="edgeStyle=none;shape=connector;curved=0;rounded=0;orthogonalLoop=1;jettySize=auto;html=1;exitX=0.5;exitY=1;exitDx=0;exitDy=0;entryX=0.117;entryY=0.043;entryDx=0;entryDy=0;labelBackgroundColor=default;strokeColor=default;align=center;verticalAlign=middle;fontFamily=Helvetica;fontSize=11;fontColor=default;endArrow=none;sourcePerimeterSpacing=0;targetPerimeterSpacing=0;entryPerimeter=0;" edge="1" parent="1" source="-OwCE8M7icj2krIlMeeb-99" target="-OwCE8M7icj2krIlMeeb-40">
          <mxGeometry relative="1" as="geometry">
            <mxPoint x="1329" y="-1411.71" as="sourcePoint" />
            <mxPoint x="1315.0000000000002" y="-1388.95" as="targetPoint" />
          </mxGeometry>
        </mxCell>
        <mxCell id="-OwCE8M7icj2krIlMeeb-104" style="edgeStyle=none;shape=connector;curved=0;rounded=0;orthogonalLoop=1;jettySize=auto;html=1;exitX=0.5;exitY=0;exitDx=0;exitDy=0;labelBackgroundColor=default;strokeColor=default;align=center;verticalAlign=middle;fontFamily=Helvetica;fontSize=11;fontColor=default;endArrow=none;sourcePerimeterSpacing=0;targetPerimeterSpacing=0;entryX=0.118;entryY=0.993;entryDx=0;entryDy=0;entryPerimeter=0;" edge="1" parent="1" source="-OwCE8M7icj2krIlMeeb-101" target="-OwCE8M7icj2krIlMeeb-40">
          <mxGeometry relative="1" as="geometry">
            <mxPoint x="1314" y="-1341.71" as="targetPoint" />
          </mxGeometry>
        </mxCell>
        <mxCell id="-OwCE8M7icj2krIlMeeb-105" value="" style="endArrow=none;html=1;rounded=1;labelBackgroundColor=default;strokeColor=default;align=center;verticalAlign=middle;fontFamily=Helvetica;fontSize=11;fontColor=default;sourcePerimeterSpacing=0;targetPerimeterSpacing=0;shape=connector;curved=0;exitX=0.5;exitY=1;exitDx=0;exitDy=0;" edge="1" parent="1" source="-OwCE8M7icj2krIlMeeb-102">
          <mxGeometry width="50" height="50" relative="1" as="geometry">
            <mxPoint x="1149" y="-1350.71" as="sourcePoint" />
            <mxPoint x="1281" y="-1331.71" as="targetPoint" />
            <Array as="points">
              <mxPoint x="1185" y="-1332.71" />
            </Array>
          </mxGeometry>
        </mxCell>
        <mxCell id="-OwCE8M7icj2krIlMeeb-107" value="(1,N)" style="text;html=1;strokeColor=none;fillColor=none;align=center;verticalAlign=middle;whiteSpace=wrap;rounded=0;fontSize=11;fontFamily=Helvetica;fontColor=default;" vertex="1" parent="1">
          <mxGeometry x="1911" y="-928" width="60" height="30" as="geometry" />
        </mxCell>
        <mxCell id="-OwCE8M7icj2krIlMeeb-108" value="autore" style="ellipse;whiteSpace=wrap;html=1;align=right;labelPosition=left;verticalLabelPosition=middle;verticalAlign=middle;fillColor=#FFFFFF;strokeColor=default;fillStyle=auto;gradientColor=none;" vertex="1" parent="1">
          <mxGeometry x="1240" y="-970" width="10" height="10" as="geometry" />
        </mxCell>
        <mxCell id="-OwCE8M7icj2krIlMeeb-109" style="edgeStyle=none;shape=connector;curved=0;rounded=1;orthogonalLoop=1;jettySize=auto;html=1;labelBackgroundColor=default;strokeColor=default;align=center;verticalAlign=middle;fontFamily=Helvetica;fontSize=11;fontColor=default;endArrow=none;sourcePerimeterSpacing=0;targetPerimeterSpacing=0;exitX=0;exitY=0.5;exitDx=0;exitDy=0;" edge="1" parent="1" source="-OwCE8M7icj2krIlMeeb-316">
          <mxGeometry relative="1" as="geometry">
            <mxPoint x="1200" y="-890" as="targetPoint" />
            <Array as="points">
              <mxPoint x="1220" y="-944" />
              <mxPoint x="1200" y="-944" />
            </Array>
            <mxPoint x="1266" y="-950" as="sourcePoint" />
          </mxGeometry>
        </mxCell>
        <mxCell id="-OwCE8M7icj2krIlMeeb-112" value="scadenza" style="ellipse;whiteSpace=wrap;html=1;align=left;labelPosition=right;verticalLabelPosition=middle;verticalAlign=middle;fillColor=#FFFFFF;strokeColor=default;fillStyle=auto;gradientColor=none;" vertex="1" parent="1">
          <mxGeometry x="1425" y="-900.5" width="10" height="10" as="geometry" />
        </mxCell>
        <mxCell id="-OwCE8M7icj2krIlMeeb-114" style="edgeStyle=orthogonalEdgeStyle;rounded=0;orthogonalLoop=1;jettySize=auto;html=1;exitX=0.5;exitY=1;exitDx=0;exitDy=0;entryX=0.5;entryY=0;entryDx=0;entryDy=0;endArrow=none;endFill=0;" edge="1" parent="1" source="-OwCE8M7icj2krIlMeeb-115" target="-OwCE8M7icj2krIlMeeb-160">
          <mxGeometry relative="1" as="geometry" />
        </mxCell>
        <mxCell id="-OwCE8M7icj2krIlMeeb-115" value="Stati" style="whiteSpace=wrap;html=1;align=center;" vertex="1" parent="1">
          <mxGeometry x="1252" y="-559" width="100" height="40" as="geometry" />
        </mxCell>
        <mxCell id="-OwCE8M7icj2krIlMeeb-116" style="edgeStyle=orthogonalEdgeStyle;rounded=0;orthogonalLoop=1;jettySize=auto;html=1;exitX=1;exitY=0.5;exitDx=0;exitDy=0;entryX=0;entryY=0.75;entryDx=0;entryDy=0;endArrow=none;endFill=0;" edge="1" parent="1" source="-OwCE8M7icj2krIlMeeb-117" target="-OwCE8M7icj2krIlMeeb-115">
          <mxGeometry relative="1" as="geometry" />
        </mxCell>
        <mxCell id="-OwCE8M7icj2krIlMeeb-117" value="Categorizzazione" style="shape=rhombus;perimeter=rhombusPerimeter;whiteSpace=wrap;html=1;align=center;" vertex="1" parent="1">
          <mxGeometry x="811" y="-559" width="120" height="60" as="geometry" />
        </mxCell>
        <mxCell id="-OwCE8M7icj2krIlMeeb-118" style="edgeStyle=orthogonalEdgeStyle;rounded=0;orthogonalLoop=1;jettySize=auto;html=1;exitX=0.5;exitY=1;exitDx=0;exitDy=0;entryX=0.5;entryY=0;entryDx=0;entryDy=0;endArrow=none;endFill=0;" edge="1" parent="1" source="-OwCE8M7icj2krIlMeeb-119" target="-OwCE8M7icj2krIlMeeb-115">
          <mxGeometry relative="1" as="geometry" />
        </mxCell>
        <mxCell id="-OwCE8M7icj2krIlMeeb-119" value="Progresso" style="shape=rhombus;perimeter=rhombusPerimeter;whiteSpace=wrap;html=1;align=center;" vertex="1" parent="1">
          <mxGeometry x="1242" y="-736" width="120" height="60" as="geometry" />
        </mxCell>
        <mxCell id="-OwCE8M7icj2krIlMeeb-120" value="Comunicazione" style="shape=rhombus;perimeter=rhombusPerimeter;whiteSpace=wrap;html=1;align=center;" vertex="1" parent="1">
          <mxGeometry x="1254" y="-1217" width="120" height="60" as="geometry" />
        </mxCell>
        <mxCell id="-OwCE8M7icj2krIlMeeb-121" value="(5,N)" style="text;html=1;strokeColor=none;fillColor=none;align=center;verticalAlign=middle;whiteSpace=wrap;rounded=0;movable=1;resizable=1;rotatable=1;deletable=1;editable=1;locked=0;connectable=1;fontSize=11;fontFamily=Helvetica;fontColor=default;" vertex="1" parent="1">
          <mxGeometry x="741" y="-529" width="60" height="30" as="geometry" />
        </mxCell>
        <mxCell id="-OwCE8M7icj2krIlMeeb-122" value="(1,1)" style="text;html=1;strokeColor=none;fillColor=none;align=center;verticalAlign=middle;whiteSpace=wrap;rounded=0;fontSize=11;fontFamily=Helvetica;fontColor=default;" vertex="1" parent="1">
          <mxGeometry x="931" y="-529" width="60" height="30" as="geometry" />
        </mxCell>
        <mxCell id="-OwCE8M7icj2krIlMeeb-123" value="(0,N)" style="text;html=1;strokeColor=none;fillColor=none;align=center;verticalAlign=middle;whiteSpace=wrap;rounded=0;fontSize=11;fontFamily=Helvetica;fontColor=default;" vertex="1" parent="1">
          <mxGeometry x="1289" y="-614" width="60" height="30" as="geometry" />
        </mxCell>
        <mxCell id="-OwCE8M7icj2krIlMeeb-124" value="(1,1)" style="text;html=1;strokeColor=none;fillColor=none;align=center;verticalAlign=middle;whiteSpace=wrap;rounded=0;fontSize=11;fontFamily=Helvetica;fontColor=default;" vertex="1" parent="1">
          <mxGeometry x="936" y="-717" width="60" height="30" as="geometry" />
        </mxCell>
        <mxCell id="-OwCE8M7icj2krIlMeeb-125" value="(1,1)" style="text;html=1;strokeColor=none;fillColor=none;align=center;verticalAlign=middle;whiteSpace=wrap;rounded=0;fontSize=11;fontFamily=Helvetica;fontColor=default;" vertex="1" parent="1">
          <mxGeometry x="1325" y="-1279" width="60" height="30" as="geometry" />
        </mxCell>
        <mxCell id="-OwCE8M7icj2krIlMeeb-126" value="(0,N)" style="text;html=1;strokeColor=none;fillColor=none;align=center;verticalAlign=middle;whiteSpace=wrap;rounded=0;fontSize=11;fontFamily=Helvetica;fontColor=default;" vertex="1" parent="1">
          <mxGeometry x="1331" y="-1000" width="60" height="30" as="geometry" />
        </mxCell>
        <mxCell id="-OwCE8M7icj2krIlMeeb-127" value="(1,N)" style="text;html=1;strokeColor=none;fillColor=none;align=center;verticalAlign=middle;whiteSpace=wrap;rounded=0;movable=1;resizable=1;rotatable=1;deletable=1;editable=1;locked=0;connectable=1;fontSize=11;fontFamily=Helvetica;fontColor=default;" vertex="1" parent="1">
          <mxGeometry x="1821" y="-844" width="60" height="30" as="geometry" />
        </mxCell>
        <mxCell id="-OwCE8M7icj2krIlMeeb-128" value="(1,N)" style="text;html=1;strokeColor=none;fillColor=none;align=center;verticalAlign=middle;whiteSpace=wrap;rounded=0;movable=1;resizable=1;rotatable=1;deletable=1;editable=1;locked=0;connectable=1;fontSize=11;fontFamily=Helvetica;fontColor=default;" vertex="1" parent="1">
          <mxGeometry x="1691" y="-862.5" width="60" height="30" as="geometry" />
        </mxCell>
        <mxCell id="-OwCE8M7icj2krIlMeeb-129" value="(1,N)" style="text;html=1;strokeColor=none;fillColor=none;align=center;verticalAlign=middle;whiteSpace=wrap;rounded=0;movable=1;resizable=1;rotatable=1;deletable=1;editable=1;locked=0;connectable=1;fontSize=11;fontFamily=Helvetica;fontColor=default;" vertex="1" parent="1">
          <mxGeometry x="1761" y="-1157" width="60" height="30" as="geometry" />
        </mxCell>
        <mxCell id="-OwCE8M7icj2krIlMeeb-130" value="(1,N)" style="text;html=1;strokeColor=none;fillColor=none;align=center;verticalAlign=middle;whiteSpace=wrap;rounded=0;movable=1;resizable=1;rotatable=1;deletable=1;editable=1;locked=0;connectable=1;fontSize=11;fontFamily=Helvetica;fontColor=default;" vertex="1" parent="1">
          <mxGeometry x="1861" y="-1157" width="60" height="30" as="geometry" />
        </mxCell>
        <mxCell id="-OwCE8M7icj2krIlMeeb-131" style="edgeStyle=orthogonalEdgeStyle;rounded=0;orthogonalLoop=1;jettySize=auto;html=1;exitX=0.5;exitY=1;exitDx=0;exitDy=0;entryX=0.686;entryY=0.046;entryDx=0;entryDy=0;entryPerimeter=0;endArrow=none;endFill=0;" edge="1" parent="1" source="-OwCE8M7icj2krIlMeeb-120" target="-OwCE8M7icj2krIlMeeb-26">
          <mxGeometry relative="1" as="geometry" />
        </mxCell>
        <mxCell id="-OwCE8M7icj2krIlMeeb-132" style="edgeStyle=orthogonalEdgeStyle;rounded=0;orthogonalLoop=1;jettySize=auto;html=1;exitX=0.5;exitY=1;exitDx=0;exitDy=0;entryX=0.131;entryY=0.037;entryDx=0;entryDy=0;entryPerimeter=0;endArrow=none;endFill=0;" edge="1" parent="1">
          <mxGeometry relative="1" as="geometry">
            <mxPoint x="1247" y="-960" as="sourcePoint" />
            <mxPoint x="1244.7679999999998" y="-927.52" as="targetPoint" />
          </mxGeometry>
        </mxCell>
        <mxCell id="-OwCE8M7icj2krIlMeeb-136" value="ultimo_accesso" style="ellipse;whiteSpace=wrap;html=1;align=right;labelPosition=left;verticalLabelPosition=middle;verticalAlign=middle;fillColor=#FFFFFF;strokeColor=default;fillStyle=auto;gradientColor=none;" vertex="1" parent="1">
          <mxGeometry x="310" y="-877.5" width="10" height="10" as="geometry" />
        </mxCell>
        <mxCell id="-OwCE8M7icj2krIlMeeb-137" value="data_creazione" style="ellipse;whiteSpace=wrap;html=1;align=right;labelPosition=left;verticalLabelPosition=middle;verticalAlign=middle;fillColor=#FFFFFF;strokeColor=default;fillStyle=auto;gradientColor=none;" vertex="1" parent="1">
          <mxGeometry x="310" y="-889.5" width="10" height="10" as="geometry" />
        </mxCell>
        <mxCell id="-OwCE8M7icj2krIlMeeb-138" style="rounded=0;orthogonalLoop=1;jettySize=auto;html=1;exitX=1;exitY=0.5;exitDx=0;exitDy=0;entryX=0;entryY=0.75;entryDx=0;entryDy=0;endArrow=none;endFill=0;" edge="1" parent="1" source="-OwCE8M7icj2krIlMeeb-137" target="-OwCE8M7icj2krIlMeeb-6">
          <mxGeometry relative="1" as="geometry" />
        </mxCell>
        <mxCell id="-OwCE8M7icj2krIlMeeb-139" style="rounded=0;orthogonalLoop=1;jettySize=auto;html=1;exitX=1;exitY=0.5;exitDx=0;exitDy=0;strokeColor=default;endArrow=none;endFill=0;strokeWidth=1;entryX=0;entryY=0;entryDx=0;entryDy=0;" edge="1" parent="1" source="-OwCE8M7icj2krIlMeeb-13" target="-OwCE8M7icj2krIlMeeb-6">
          <mxGeometry relative="1" as="geometry">
            <mxPoint x="401" y="-930" as="targetPoint" />
          </mxGeometry>
        </mxCell>
        <mxCell id="-OwCE8M7icj2krIlMeeb-153" style="edgeStyle=orthogonalEdgeStyle;rounded=0;orthogonalLoop=1;jettySize=auto;html=1;exitX=1;exitY=0.5;exitDx=0;exitDy=0;entryX=0;entryY=0.5;entryDx=0;entryDy=0;endArrow=none;endFill=0;" edge="1" parent="1" source="-OwCE8M7icj2krIlMeeb-154" target="-OwCE8M7icj2krIlMeeb-167">
          <mxGeometry relative="1" as="geometry" />
        </mxCell>
        <mxCell id="-OwCE8M7icj2krIlMeeb-154" value="Info_schede" style="whiteSpace=wrap;html=1;align=center;flipH=0;flipV=0;" vertex="1" parent="1">
          <mxGeometry x="810" y="-1159.75" width="160" height="40" as="geometry" />
        </mxCell>
        <mxCell id="-OwCE8M7icj2krIlMeeb-156" style="rounded=0;orthogonalLoop=1;jettySize=auto;html=1;exitX=1;exitY=0.5;exitDx=0;exitDy=0;entryX=0;entryY=0.5;entryDx=0;entryDy=0;endArrow=none;endFill=0;" edge="1" parent="1" source="-OwCE8M7icj2krIlMeeb-157" target="-OwCE8M7icj2krIlMeeb-33">
          <mxGeometry relative="1" as="geometry" />
        </mxCell>
        <mxCell id="-OwCE8M7icj2krIlMeeb-157" value="nome" style="ellipse;whiteSpace=wrap;html=1;align=right;labelPosition=left;verticalLabelPosition=middle;verticalAlign=middle;fillColor=#FFFFFF;strokeColor=default;fillStyle=auto;gradientColor=none;" vertex="1" parent="1">
          <mxGeometry x="356" y="-711" width="10" height="10" as="geometry" />
        </mxCell>
        <mxCell id="-OwCE8M7icj2krIlMeeb-158" style="edgeStyle=orthogonalEdgeStyle;rounded=0;orthogonalLoop=1;jettySize=auto;html=1;exitX=1;exitY=0.5;exitDx=0;exitDy=0;entryX=0.004;entryY=0.642;entryDx=0;entryDy=0;entryPerimeter=0;endArrow=none;endFill=0;" edge="1" parent="1" source="-OwCE8M7icj2krIlMeeb-20" target="-OwCE8M7icj2krIlMeeb-16">
          <mxGeometry relative="1" as="geometry" />
        </mxCell>
        <mxCell id="-OwCE8M7icj2krIlMeeb-159" value="id_progetto" style="ellipse;whiteSpace=wrap;html=1;align=right;labelPosition=left;verticalLabelPosition=middle;verticalAlign=middle;fillColor=#FFFFFF;strokeColor=default;fillStyle=auto;gradientColor=none;" vertex="1" parent="1">
          <mxGeometry x="1262" y="-475" width="10" height="10" as="geometry" />
        </mxCell>
        <mxCell id="-OwCE8M7icj2krIlMeeb-160" value="stato" style="ellipse;whiteSpace=wrap;html=1;align=left;labelPosition=right;verticalLabelPosition=middle;verticalAlign=middle;fillColor=#FAFAFA;strokeColor=default;fillStyle=auto;gradientColor=none;" vertex="1" parent="1">
          <mxGeometry x="1297" y="-475" width="10" height="10" as="geometry" />
        </mxCell>
        <mxCell id="-OwCE8M7icj2krIlMeeb-161" value="uuid_scheda" style="ellipse;whiteSpace=wrap;html=1;align=center;labelPosition=center;verticalLabelPosition=bottom;verticalAlign=top;fillColor=#000000;strokeColor=default;fillStyle=auto;gradientColor=none;" vertex="1" parent="1">
          <mxGeometry x="942" y="-1107.25" width="10" height="10" as="geometry" />
        </mxCell>
        <mxCell id="-OwCE8M7icj2krIlMeeb-162" value="" style="endArrow=none;html=1;rounded=1;labelBackgroundColor=default;strokeColor=default;align=center;verticalAlign=middle;fontFamily=Helvetica;fontSize=11;fontColor=default;sourcePerimeterSpacing=0;targetPerimeterSpacing=0;shape=connector;curved=0;exitX=1;exitY=0.5;exitDx=0;exitDy=0;" edge="1" parent="1" source="-OwCE8M7icj2krIlMeeb-163">
          <mxGeometry width="50" height="50" relative="1" as="geometry">
            <mxPoint x="970" y="-1135.75" as="sourcePoint" />
            <mxPoint x="980" y="-1150" as="targetPoint" />
            <Array as="points">
              <mxPoint x="980" y="-1110" />
            </Array>
          </mxGeometry>
        </mxCell>
        <mxCell id="-OwCE8M7icj2krIlMeeb-163" value="" style="ellipse;whiteSpace=wrap;html=1;align=right;fontStyle=4;labelBackgroundColor=none;labelPosition=left;verticalLabelPosition=middle;verticalAlign=middle;fillColor=#000000;fontFamily=Helvetica;fontSize=11;fontColor=default;flipH=1;" vertex="1" parent="1">
          <mxGeometry x="911" y="-1114.75" width="10" height="10" as="geometry" />
        </mxCell>
        <mxCell id="-OwCE8M7icj2krIlMeeb-166" style="edgeStyle=orthogonalEdgeStyle;rounded=0;orthogonalLoop=1;jettySize=auto;html=1;exitX=1;exitY=0.5;exitDx=0;exitDy=0;endArrow=none;endFill=0;" edge="1" parent="1" source="-OwCE8M7icj2krIlMeeb-167" target="-OwCE8M7icj2krIlMeeb-26">
          <mxGeometry relative="1" as="geometry">
            <Array as="points">
              <mxPoint x="1153" y="-990" />
              <mxPoint x="1271" y="-990" />
            </Array>
          </mxGeometry>
        </mxCell>
        <mxCell id="-OwCE8M7icj2krIlMeeb-167" value="Informazione" style="shape=rhombus;perimeter=rhombusPerimeter;whiteSpace=wrap;html=1;align=center;" vertex="1" parent="1">
          <mxGeometry x="1021" y="-1169.75" width="120" height="60" as="geometry" />
        </mxCell>
        <mxCell id="-OwCE8M7icj2krIlMeeb-168" value="(1,1)" style="text;html=1;strokeColor=none;fillColor=none;align=center;verticalAlign=middle;whiteSpace=wrap;rounded=0;fontSize=11;fontFamily=Helvetica;fontColor=default;" vertex="1" parent="1">
          <mxGeometry x="975" y="-1148.5" width="60" height="30" as="geometry" />
        </mxCell>
        <mxCell id="-OwCE8M7icj2krIlMeeb-169" value="(1,1)" style="text;html=1;strokeColor=none;fillColor=none;align=center;verticalAlign=middle;whiteSpace=wrap;rounded=0;fontSize=11;fontFamily=Helvetica;fontColor=default;" vertex="1" parent="1">
          <mxGeometry x="1155" y="-1030" width="60" height="30" as="geometry" />
        </mxCell>
        <mxCell id="-OwCE8M7icj2krIlMeeb-174" style="edgeStyle=orthogonalEdgeStyle;rounded=0;orthogonalLoop=1;jettySize=auto;html=1;exitX=1;exitY=0.5;exitDx=0;exitDy=0;entryX=0;entryY=0.75;entryDx=0;entryDy=0;endArrow=none;endFill=0;" edge="1" parent="1" source="-OwCE8M7icj2krIlMeeb-176" target="-OwCE8M7icj2krIlMeeb-154">
          <mxGeometry relative="1" as="geometry" />
        </mxCell>
        <mxCell id="-OwCE8M7icj2krIlMeeb-175" style="edgeStyle=orthogonalEdgeStyle;rounded=0;orthogonalLoop=1;jettySize=auto;html=1;exitX=0;exitY=0.5;exitDx=0;exitDy=0;endArrow=none;endFill=0;entryX=0.886;entryY=-0.006;entryDx=0;entryDy=0;entryPerimeter=0;" edge="1" parent="1" source="-OwCE8M7icj2krIlMeeb-176" target="-OwCE8M7icj2krIlMeeb-6">
          <mxGeometry relative="1" as="geometry">
            <mxPoint x="491" y="-1107" as="targetPoint" />
          </mxGeometry>
        </mxCell>
        <mxCell id="-OwCE8M7icj2krIlMeeb-176" value="Operazione&lt;br&gt;Scheda" style="shape=rhombus;perimeter=rhombusPerimeter;whiteSpace=wrap;html=1;align=center;" vertex="1" parent="1">
          <mxGeometry x="580" y="-1159.5" width="120" height="60" as="geometry" />
        </mxCell>
        <mxCell id="-OwCE8M7icj2krIlMeeb-178" style="edgeStyle=orthogonalEdgeStyle;rounded=0;orthogonalLoop=1;jettySize=auto;html=1;exitX=0.5;exitY=0;exitDx=0;exitDy=0;endArrow=none;endFill=0;entryX=0.863;entryY=1.027;entryDx=0;entryDy=0;entryPerimeter=0;" edge="1" parent="1" source="-OwCE8M7icj2krIlMeeb-161" target="-OwCE8M7icj2krIlMeeb-154">
          <mxGeometry relative="1" as="geometry">
            <mxPoint x="990" y="-1092" as="targetPoint" />
            <Array as="points">
              <mxPoint x="947" y="-1119" />
            </Array>
          </mxGeometry>
        </mxCell>
        <mxCell id="-OwCE8M7icj2krIlMeeb-181" value="(0,N)" style="text;html=1;strokeColor=none;fillColor=none;align=center;verticalAlign=middle;whiteSpace=wrap;rounded=0;fontSize=11;fontFamily=Helvetica;fontColor=default;" vertex="1" parent="1">
          <mxGeometry x="503" y="-1153.5" width="60" height="30" as="geometry" />
        </mxCell>
        <mxCell id="-OwCE8M7icj2krIlMeeb-182" value="(0,N)" style="text;html=1;strokeColor=none;fillColor=none;align=center;verticalAlign=middle;whiteSpace=wrap;rounded=0;fontSize=11;fontFamily=Helvetica;fontColor=default;" vertex="1" parent="1">
          <mxGeometry x="710" y="-1154.75" width="60" height="30" as="geometry" />
        </mxCell>
        <mxCell id="-OwCE8M7icj2krIlMeeb-185" value="inizio_mandato" style="ellipse;html=1;align=left;labelPosition=right;verticalLabelPosition=middle;verticalAlign=middle;fillColor=#FFFFFF;strokeColor=default;fillStyle=auto;gradientColor=none;" vertex="1" parent="1">
          <mxGeometry x="661" y="-1099.5" width="10" height="10" as="geometry" />
        </mxCell>
        <mxCell id="-OwCE8M7icj2krIlMeeb-186" value="fine_mandato" style="ellipse;html=1;align=left;labelPosition=right;verticalLabelPosition=middle;verticalAlign=middle;fillColor=#FFFFFF;strokeColor=default;fillStyle=auto;gradientColor=none;" vertex="1" parent="1">
          <mxGeometry x="651" y="-1080.25" width="10" height="10" as="geometry" />
        </mxCell>
        <mxCell id="-OwCE8M7icj2krIlMeeb-189" style="rounded=0;orthogonalLoop=1;jettySize=auto;html=1;exitX=0;exitY=0;exitDx=0;exitDy=0;endArrow=none;endFill=0;" edge="1" parent="1" source="-OwCE8M7icj2krIlMeeb-190" target="-OwCE8M7icj2krIlMeeb-176">
          <mxGeometry relative="1" as="geometry" />
        </mxCell>
        <mxCell id="-OwCE8M7icj2krIlMeeb-190" value="spostamento" style="ellipse;html=1;align=left;labelPosition=right;verticalLabelPosition=middle;verticalAlign=middle;fillColor=#FFFFFF;strokeColor=default;fillStyle=auto;gradientColor=none;" vertex="1" parent="1">
          <mxGeometry x="690" y="-1118.5" width="10" height="10" as="geometry" />
        </mxCell>
        <mxCell id="-OwCE8M7icj2krIlMeeb-191" value="ultima_modifica" style="ellipse;html=1;align=left;labelPosition=right;verticalLabelPosition=middle;verticalAlign=middle;fillColor=#FFFFFF;strokeColor=default;fillStyle=auto;gradientColor=none;" vertex="1" parent="1">
          <mxGeometry x="661" y="-1169.5" width="10" height="10" as="geometry" />
        </mxCell>
        <mxCell id="-OwCE8M7icj2krIlMeeb-281" style="edgeStyle=orthogonalEdgeStyle;rounded=0;orthogonalLoop=1;jettySize=auto;html=1;exitX=0.5;exitY=1;exitDx=0;exitDy=0;endArrow=none;endFill=0;" edge="1" parent="1" source="-OwCE8M7icj2krIlMeeb-193">
          <mxGeometry relative="1" as="geometry">
            <mxPoint x="887" y="-1160" as="targetPoint" />
          </mxGeometry>
        </mxCell>
        <mxCell id="-OwCE8M7icj2krIlMeeb-193" value="data_inizio" style="ellipse;html=1;align=center;labelPosition=center;verticalLabelPosition=top;verticalAlign=bottom;fillColor=#FFFFFF;strokeColor=default;fillStyle=auto;gradientColor=none;" vertex="1" parent="1">
          <mxGeometry x="882" y="-1179.75" width="10" height="10" as="geometry" />
        </mxCell>
        <mxCell id="-OwCE8M7icj2krIlMeeb-194" value="data_fine" style="ellipse;html=1;align=center;labelPosition=center;verticalLabelPosition=top;verticalAlign=bottom;fillColor=#FFFFFF;strokeColor=default;fillStyle=auto;gradientColor=none;" vertex="1" parent="1">
          <mxGeometry x="941" y="-1179.75" width="10" height="10" as="geometry" />
        </mxCell>
        <mxCell id="-OwCE8M7icj2krIlMeeb-196" style="edgeStyle=orthogonalEdgeStyle;rounded=0;orthogonalLoop=1;jettySize=auto;html=1;exitX=0.5;exitY=1;exitDx=0;exitDy=0;entryX=0.85;entryY=-0.008;entryDx=0;entryDy=0;entryPerimeter=0;endArrow=none;endFill=0;" edge="1" parent="1" source="-OwCE8M7icj2krIlMeeb-194" target="-OwCE8M7icj2krIlMeeb-154">
          <mxGeometry relative="1" as="geometry" />
        </mxCell>
        <mxCell id="-OwCE8M7icj2krIlMeeb-197" value="inviato" style="ellipse;html=1;align=left;labelPosition=right;verticalLabelPosition=middle;verticalAlign=middle;fillColor=#FFFFFF;strokeColor=default;fillStyle=auto;gradientColor=none;" vertex="1" parent="1">
          <mxGeometry x="680" y="-1350" width="10" height="10" as="geometry" />
        </mxCell>
        <mxCell id="-OwCE8M7icj2krIlMeeb-198" style="rounded=0;orthogonalLoop=1;jettySize=auto;html=1;exitX=0;exitY=0;exitDx=0;exitDy=0;endArrow=none;endFill=0;" edge="1" parent="1" source="-OwCE8M7icj2krIlMeeb-197" target="-OwCE8M7icj2krIlMeeb-57">
          <mxGeometry relative="1" as="geometry" />
        </mxCell>
        <mxCell id="-OwCE8M7icj2krIlMeeb-199" value="modificato_il" style="ellipse;html=1;align=left;labelPosition=right;verticalLabelPosition=middle;verticalAlign=middle;fillColor=#FFFFFF;strokeColor=default;fillStyle=auto;gradientColor=none;" vertex="1" parent="1">
          <mxGeometry x="661" y="-1334" width="10" height="10" as="geometry" />
        </mxCell>
        <mxCell id="-OwCE8M7icj2krIlMeeb-200" style="edgeStyle=orthogonalEdgeStyle;rounded=0;orthogonalLoop=1;jettySize=auto;html=1;exitX=0.5;exitY=0;exitDx=0;exitDy=0;entryX=0.5;entryY=1;entryDx=0;entryDy=0;endArrow=none;endFill=0;" edge="1" parent="1" source="-OwCE8M7icj2krIlMeeb-201" target="-OwCE8M7icj2krIlMeeb-71">
          <mxGeometry relative="1" as="geometry" />
        </mxCell>
        <mxCell id="-OwCE8M7icj2krIlMeeb-201" value="categoria" style="ellipse;whiteSpace=wrap;html=1;align=center;labelPosition=center;verticalLabelPosition=bottom;verticalAlign=top;fillStyle=auto;fontFamily=Helvetica;fontSize=11;" vertex="1" parent="1">
          <mxGeometry x="2121" y="-848.5" width="10" height="10" as="geometry" />
        </mxCell>
        <mxCell id="-OwCE8M7icj2krIlMeeb-202" value="stato" style="ellipse;whiteSpace=wrap;html=1;align=center;labelPosition=center;verticalLabelPosition=bottom;verticalAlign=top;fillStyle=auto;fontFamily=Helvetica;fontSize=11;" vertex="1" parent="1">
          <mxGeometry x="2170" y="-829.5" width="10" height="10" as="geometry" />
        </mxCell>
        <mxCell id="-OwCE8M7icj2krIlMeeb-203" value="utente_attore" style="ellipse;whiteSpace=wrap;html=1;align=center;labelPosition=center;verticalLabelPosition=top;verticalAlign=bottom;fillStyle=auto;fontFamily=Helvetica;fontSize=11;" vertex="1" parent="1">
          <mxGeometry x="2055" y="-937" width="10" height="10" as="geometry" />
        </mxCell>
        <mxCell id="-OwCE8M7icj2krIlMeeb-204" value="utente_bersaglio" style="ellipse;whiteSpace=wrap;html=1;align=center;labelPosition=center;verticalLabelPosition=top;verticalAlign=bottom;fillStyle=auto;fontFamily=Helvetica;fontSize=11;" vertex="1" parent="1">
          <mxGeometry x="2138" y="-968" width="10" height="10" as="geometry" />
        </mxCell>
        <mxCell id="-OwCE8M7icj2krIlMeeb-205" style="rounded=0;orthogonalLoop=1;jettySize=auto;html=1;exitX=0.5;exitY=1;exitDx=0;exitDy=0;entryX=0.6;entryY=0.014;entryDx=0;entryDy=0;entryPerimeter=0;endArrow=none;endFill=0;" edge="1" parent="1" source="-OwCE8M7icj2krIlMeeb-204" target="-OwCE8M7icj2krIlMeeb-71">
          <mxGeometry relative="1" as="geometry" />
        </mxCell>
        <mxCell id="-OwCE8M7icj2krIlMeeb-206" style="edgeStyle=orthogonalEdgeStyle;rounded=0;orthogonalLoop=1;jettySize=auto;html=1;exitX=0.5;exitY=0;exitDx=0;exitDy=0;entryX=0.786;entryY=1.002;entryDx=0;entryDy=0;entryPerimeter=0;endArrow=none;endFill=0;" edge="1" parent="1" source="-OwCE8M7icj2krIlMeeb-202" target="-OwCE8M7icj2krIlMeeb-71">
          <mxGeometry relative="1" as="geometry" />
        </mxCell>
        <mxCell id="-OwCE8M7icj2krIlMeeb-207" style="edgeStyle=orthogonalEdgeStyle;rounded=1;orthogonalLoop=1;jettySize=auto;html=1;exitX=0;exitY=0.5;exitDx=0;exitDy=0;curved=0;endArrow=none;endFill=0;" edge="1" parent="1" source="-OwCE8M7icj2krIlMeeb-208">
          <mxGeometry relative="1" as="geometry">
            <mxPoint x="1991" y="-910" as="targetPoint" />
          </mxGeometry>
        </mxCell>
        <mxCell id="-OwCE8M7icj2krIlMeeb-208" value="" style="ellipse;whiteSpace=wrap;html=1;align=right;fontStyle=4;labelBackgroundColor=none;labelPosition=left;verticalLabelPosition=middle;verticalAlign=middle;fillColor=#000000;fontFamily=Helvetica;fontSize=11;fontColor=default;" vertex="1" parent="1">
          <mxGeometry x="2141" y="-857.5" width="10" height="10" as="geometry" />
        </mxCell>
        <mxCell id="-OwCE8M7icj2krIlMeeb-209" value="" style="ellipse;whiteSpace=wrap;html=1;align=right;fontStyle=4;labelBackgroundColor=none;labelPosition=left;verticalLabelPosition=middle;verticalAlign=middle;fillColor=#000000;fontFamily=Helvetica;fontSize=11;fontColor=default;" vertex="1" parent="1">
          <mxGeometry x="2191" y="-839.5" width="10" height="10" as="geometry" />
        </mxCell>
        <mxCell id="-OwCE8M7icj2krIlMeeb-210" style="edgeStyle=orthogonalEdgeStyle;rounded=1;orthogonalLoop=1;jettySize=auto;html=1;exitX=0;exitY=0.5;exitDx=0;exitDy=0;entryX=1.059;entryY=0.714;entryDx=0;entryDy=0;entryPerimeter=0;curved=0;endArrow=none;endFill=0;" edge="1" parent="1" source="-OwCE8M7icj2krIlMeeb-209" target="-OwCE8M7icj2krIlMeeb-107">
          <mxGeometry relative="1" as="geometry" />
        </mxCell>
        <mxCell id="-OwCE8M7icj2krIlMeeb-211" style="rounded=0;orthogonalLoop=1;jettySize=auto;html=1;exitX=0.5;exitY=1;exitDx=0;exitDy=0;entryX=0.113;entryY=0.025;entryDx=0;entryDy=0;entryPerimeter=0;endArrow=none;endFill=0;" edge="1" parent="1" source="-OwCE8M7icj2krIlMeeb-203" target="-OwCE8M7icj2krIlMeeb-71">
          <mxGeometry relative="1" as="geometry" />
        </mxCell>
        <mxCell id="-OwCE8M7icj2krIlMeeb-212" style="edgeStyle=orthogonalEdgeStyle;rounded=1;orthogonalLoop=1;jettySize=auto;html=1;exitX=0;exitY=0.5;exitDx=0;exitDy=0;curved=0;endArrow=none;endFill=0;" edge="1" parent="1" source="-OwCE8M7icj2krIlMeeb-213">
          <mxGeometry relative="1" as="geometry">
            <mxPoint x="2031" y="-880" as="targetPoint" />
          </mxGeometry>
        </mxCell>
        <mxCell id="-OwCE8M7icj2krIlMeeb-213" value="" style="ellipse;whiteSpace=wrap;html=1;align=right;fontStyle=4;labelBackgroundColor=none;labelPosition=left;verticalLabelPosition=middle;verticalAlign=middle;fillColor=#000000;fontFamily=Helvetica;fontSize=11;fontColor=default;" vertex="1" parent="1">
          <mxGeometry x="2091" y="-928" width="10" height="10" as="geometry" />
        </mxCell>
        <mxCell id="-OwCE8M7icj2krIlMeeb-214" style="edgeStyle=orthogonalEdgeStyle;rounded=1;orthogonalLoop=1;jettySize=auto;html=1;exitX=0;exitY=0.5;exitDx=0;exitDy=0;curved=0;endArrow=none;endFill=0;" edge="1" parent="1" source="-OwCE8M7icj2krIlMeeb-215">
          <mxGeometry relative="1" as="geometry">
            <mxPoint x="2021" y="-880" as="targetPoint" />
          </mxGeometry>
        </mxCell>
        <mxCell id="-OwCE8M7icj2krIlMeeb-215" value="" style="ellipse;whiteSpace=wrap;html=1;align=right;fontStyle=4;labelBackgroundColor=none;labelPosition=left;verticalLabelPosition=middle;verticalAlign=middle;fillColor=#000000;fontFamily=Helvetica;fontSize=11;fontColor=default;" vertex="1" parent="1">
          <mxGeometry x="2160" y="-956" width="10" height="10" as="geometry" />
        </mxCell>
        <mxCell id="-OwCE8M7icj2krIlMeeb-217" value="genere" style="ellipse;whiteSpace=wrap;html=1;align=center;labelPosition=center;verticalLabelPosition=bottom;verticalAlign=top;fillColor=#FFFFFF;strokeColor=default;fillStyle=auto;gradientColor=none;" vertex="1" parent="1">
          <mxGeometry x="488" y="-862.5" width="10" height="10" as="geometry" />
        </mxCell>
        <mxCell id="-OwCE8M7icj2krIlMeeb-219" value="ruolo" style="ellipse;whiteSpace=wrap;html=1;align=center;labelPosition=center;verticalLabelPosition=bottom;verticalAlign=top;fillColor=#FFFFFF;strokeColor=default;fillStyle=auto;gradientColor=none;" vertex="1" parent="1">
          <mxGeometry x="349" y="-861.5" width="10" height="10" as="geometry" />
        </mxCell>
        <mxCell id="-OwCE8M7icj2krIlMeeb-220" style="edgeStyle=orthogonalEdgeStyle;rounded=0;orthogonalLoop=1;jettySize=auto;html=1;exitX=0.5;exitY=0;exitDx=0;exitDy=0;entryX=0.08;entryY=1;entryDx=0;entryDy=0;entryPerimeter=0;endArrow=none;endFill=0;" edge="1" parent="1" target="-OwCE8M7icj2krIlMeeb-6">
          <mxGeometry relative="1" as="geometry">
            <mxPoint x="353" y="-861.5" as="sourcePoint" />
            <mxPoint x="364.94799999999987" y="-888" as="targetPoint" />
          </mxGeometry>
        </mxCell>
        <mxCell id="-OwCE8M7icj2krIlMeeb-230" style="edgeStyle=orthogonalEdgeStyle;rounded=1;orthogonalLoop=1;jettySize=auto;html=1;exitX=0;exitY=0.5;exitDx=0;exitDy=0;endArrow=none;endFill=0;curved=0;" edge="1" parent="1" source="-OwCE8M7icj2krIlMeeb-227">
          <mxGeometry relative="1" as="geometry">
            <mxPoint x="1213" y="-545" as="targetPoint" />
          </mxGeometry>
        </mxCell>
        <mxCell id="-OwCE8M7icj2krIlMeeb-227" value="" style="ellipse;whiteSpace=wrap;html=1;align=right;fontStyle=4;labelBackgroundColor=none;labelPosition=left;verticalLabelPosition=middle;verticalAlign=middle;fillColor=#000000;fontFamily=Helvetica;fontSize=11;fontColor=default;" vertex="1" parent="1">
          <mxGeometry x="1276" y="-513" width="10" height="10" as="geometry" />
        </mxCell>
        <mxCell id="-OwCE8M7icj2krIlMeeb-229" style="edgeStyle=orthogonalEdgeStyle;rounded=0;orthogonalLoop=1;jettySize=auto;html=1;exitX=0.5;exitY=0;exitDx=0;exitDy=0;entryX=0.155;entryY=0.982;entryDx=0;entryDy=0;entryPerimeter=0;endArrow=none;endFill=0;" edge="1" parent="1" source="-OwCE8M7icj2krIlMeeb-159" target="-OwCE8M7icj2krIlMeeb-115">
          <mxGeometry relative="1" as="geometry" />
        </mxCell>
        <mxCell id="-OwCE8M7icj2krIlMeeb-232" style="edgeStyle=orthogonalEdgeStyle;rounded=0;orthogonalLoop=1;jettySize=auto;html=1;exitX=1;exitY=0.5;exitDx=0;exitDy=0;endArrow=none;endFill=0;" edge="1" parent="1" source="-OwCE8M7icj2krIlMeeb-231">
          <mxGeometry relative="1" as="geometry">
            <mxPoint x="1333" y="-489.95348837209303" as="targetPoint" />
          </mxGeometry>
        </mxCell>
        <mxCell id="-OwCE8M7icj2krIlMeeb-231" value="" style="ellipse;whiteSpace=wrap;html=1;align=right;fontStyle=4;labelBackgroundColor=none;labelPosition=left;verticalLabelPosition=middle;verticalAlign=middle;fillColor=#000000;fontFamily=Helvetica;fontSize=11;fontColor=default;" vertex="1" parent="1">
          <mxGeometry x="1241" y="-495" width="10" height="10" as="geometry" />
        </mxCell>
        <mxCell id="-OwCE8M7icj2krIlMeeb-237" style="edgeStyle=orthogonalEdgeStyle;rounded=0;orthogonalLoop=1;jettySize=auto;html=1;exitX=0;exitY=0.5;exitDx=0;exitDy=0;endArrow=none;endFill=0;" edge="1" parent="1" source="-OwCE8M7icj2krIlMeeb-233">
          <mxGeometry relative="1" as="geometry">
            <mxPoint x="1353" y="-554.1395348837209" as="targetPoint" />
          </mxGeometry>
        </mxCell>
        <mxCell id="-OwCE8M7icj2krIlMeeb-233" value="visibile" style="ellipse;whiteSpace=wrap;html=1;align=left;labelPosition=right;verticalLabelPosition=middle;verticalAlign=middle;fillColor=#FAFAFA;strokeColor=default;fillStyle=auto;gradientColor=none;" vertex="1" parent="1">
          <mxGeometry x="1368" y="-559" width="10" height="10" as="geometry" />
        </mxCell>
        <mxCell id="-OwCE8M7icj2krIlMeeb-239" style="edgeStyle=orthogonalEdgeStyle;rounded=0;orthogonalLoop=1;jettySize=auto;html=1;exitX=0;exitY=0.5;exitDx=0;exitDy=0;endArrow=none;endFill=0;" edge="1" parent="1" source="-OwCE8M7icj2krIlMeeb-234">
          <mxGeometry relative="1" as="geometry">
            <mxPoint x="1353" y="-523.9069767441861" as="targetPoint" />
          </mxGeometry>
        </mxCell>
        <mxCell id="-OwCE8M7icj2krIlMeeb-234" value="colore_hex" style="ellipse;whiteSpace=wrap;html=1;align=left;labelPosition=right;verticalLabelPosition=middle;verticalAlign=middle;fillColor=#FAFAFA;strokeColor=default;fillStyle=auto;gradientColor=none;" vertex="1" parent="1">
          <mxGeometry x="1368" y="-529" width="10" height="10" as="geometry" />
        </mxCell>
        <mxCell id="-OwCE8M7icj2krIlMeeb-238" style="edgeStyle=orthogonalEdgeStyle;rounded=0;orthogonalLoop=1;jettySize=auto;html=1;exitX=0;exitY=0.5;exitDx=0;exitDy=0;endArrow=none;endFill=0;" edge="1" parent="1" source="-OwCE8M7icj2krIlMeeb-235">
          <mxGeometry relative="1" as="geometry">
            <mxPoint x="1353" y="-538.7906976744184" as="targetPoint" />
          </mxGeometry>
        </mxCell>
        <mxCell id="-OwCE8M7icj2krIlMeeb-235" value="ordine_stati" style="ellipse;whiteSpace=wrap;html=1;align=left;labelPosition=right;verticalLabelPosition=middle;verticalAlign=middle;fillColor=#FAFAFA;strokeColor=default;fillStyle=auto;gradientColor=none;" vertex="1" parent="1">
          <mxGeometry x="1368" y="-544" width="10" height="10" as="geometry" />
        </mxCell>
        <mxCell id="-OwCE8M7icj2krIlMeeb-240" value="id_progetto" style="ellipse;whiteSpace=wrap;html=1;align=center;labelPosition=center;verticalLabelPosition=bottom;verticalAlign=top;fillColor=#FFFFFF;strokeColor=default;fillStyle=auto;gradientColor=none;" vertex="1" parent="1">
          <mxGeometry x="1329" y="-867.5" width="10" height="10" as="geometry" />
        </mxCell>
        <mxCell id="-OwCE8M7icj2krIlMeeb-241" value="stato" style="ellipse;whiteSpace=wrap;html=1;align=center;labelPosition=center;verticalLabelPosition=bottom;verticalAlign=top;fillColor=#FAFAFA;strokeColor=default;fillStyle=auto;gradientColor=none;" vertex="1" parent="1">
          <mxGeometry x="1375" y="-867.5" width="10" height="10" as="geometry" />
        </mxCell>
        <mxCell id="-OwCE8M7icj2krIlMeeb-243" style="edgeStyle=orthogonalEdgeStyle;rounded=0;orthogonalLoop=1;jettySize=auto;html=1;exitX=0.5;exitY=0;exitDx=0;exitDy=0;entryX=0.588;entryY=0.988;entryDx=0;entryDy=0;entryPerimeter=0;endArrow=none;endFill=0;" edge="1" parent="1" source="-OwCE8M7icj2krIlMeeb-240" target="-OwCE8M7icj2krIlMeeb-26">
          <mxGeometry relative="1" as="geometry" />
        </mxCell>
        <mxCell id="-OwCE8M7icj2krIlMeeb-251" style="edgeStyle=orthogonalEdgeStyle;rounded=0;orthogonalLoop=1;jettySize=auto;html=1;exitX=0;exitY=0.5;exitDx=0;exitDy=0;endArrow=none;endFill=0;" edge="1" parent="1" source="-OwCE8M7icj2krIlMeeb-248">
          <mxGeometry relative="1" as="geometry">
            <mxPoint x="1270" y="-873" as="targetPoint" />
            <Array as="points">
              <mxPoint x="1344" y="-873" />
              <mxPoint x="1271" y="-873" />
              <mxPoint x="1271" y="-880" />
            </Array>
          </mxGeometry>
        </mxCell>
        <mxCell id="-OwCE8M7icj2krIlMeeb-248" value="" style="ellipse;whiteSpace=wrap;html=1;align=right;fontStyle=4;labelBackgroundColor=none;labelPosition=left;verticalLabelPosition=middle;verticalAlign=middle;fillColor=#000000;fontFamily=Helvetica;fontSize=11;fontColor=default;" vertex="1" parent="1">
          <mxGeometry x="1416" y="-878.5" width="10" height="10" as="geometry" />
        </mxCell>
        <mxCell id="-OwCE8M7icj2krIlMeeb-253" style="edgeStyle=orthogonalEdgeStyle;rounded=0;orthogonalLoop=1;jettySize=auto;html=1;exitX=0.5;exitY=0;exitDx=0;exitDy=0;entryX=0.837;entryY=1;entryDx=0;entryDy=0;entryPerimeter=0;endArrow=none;endFill=0;" edge="1" parent="1" source="-OwCE8M7icj2krIlMeeb-241" target="-OwCE8M7icj2krIlMeeb-26">
          <mxGeometry relative="1" as="geometry" />
        </mxCell>
        <mxCell id="-OwCE8M7icj2krIlMeeb-257" value="creazione" style="ellipse;whiteSpace=wrap;html=1;align=left;labelPosition=right;verticalLabelPosition=middle;verticalAlign=middle;fillColor=#FFFFFF;strokeColor=default;fillStyle=auto;gradientColor=none;" vertex="1" parent="1">
          <mxGeometry x="861" y="-937" width="10" height="10" as="geometry" />
        </mxCell>
        <mxCell id="-OwCE8M7icj2krIlMeeb-259" style="rounded=0;orthogonalLoop=1;jettySize=auto;html=1;exitX=0;exitY=1;exitDx=0;exitDy=0;entryX=0.85;entryY=0.367;entryDx=0;entryDy=0;entryPerimeter=0;endArrow=none;endFill=0;" edge="1" parent="1" source="-OwCE8M7icj2krIlMeeb-257" target="-OwCE8M7icj2krIlMeeb-52">
          <mxGeometry relative="1" as="geometry" />
        </mxCell>
        <mxCell id="-OwCE8M7icj2krIlMeeb-260" value="ordine_schede" style="ellipse;whiteSpace=wrap;html=1;align=left;labelPosition=right;verticalLabelPosition=middle;verticalAlign=middle;fillColor=#FFFFFF;strokeColor=default;fillStyle=auto;gradientColor=none;" vertex="1" parent="1">
          <mxGeometry x="1425" y="-887.5" width="10" height="10" as="geometry" />
        </mxCell>
        <mxCell id="-OwCE8M7icj2krIlMeeb-264" style="rounded=0;orthogonalLoop=1;jettySize=auto;html=1;exitX=0;exitY=0.5;exitDx=0;exitDy=0;entryX=1.002;entryY=0.58;entryDx=0;entryDy=0;entryPerimeter=0;endArrow=none;endFill=0;" edge="1" parent="1" source="-OwCE8M7icj2krIlMeeb-112" target="-OwCE8M7icj2krIlMeeb-26">
          <mxGeometry relative="1" as="geometry" />
        </mxCell>
        <mxCell id="-OwCE8M7icj2krIlMeeb-265" style="rounded=0;orthogonalLoop=1;jettySize=auto;html=1;exitX=0;exitY=0.5;exitDx=0;exitDy=0;entryX=1;entryY=0.828;entryDx=0;entryDy=0;entryPerimeter=0;endArrow=none;endFill=0;" edge="1" parent="1" source="-OwCE8M7icj2krIlMeeb-260" target="-OwCE8M7icj2krIlMeeb-26">
          <mxGeometry relative="1" as="geometry" />
        </mxCell>
        <mxCell id="-OwCE8M7icj2krIlMeeb-267" style="edgeStyle=orthogonalEdgeStyle;rounded=0;orthogonalLoop=1;jettySize=auto;html=1;exitX=0;exitY=0.5;exitDx=0;exitDy=0;entryX=0.832;entryY=0;entryDx=0;entryDy=0;entryPerimeter=0;endArrow=none;endFill=0;" edge="1" parent="1" source="-OwCE8M7icj2krIlMeeb-80" target="-OwCE8M7icj2krIlMeeb-26">
          <mxGeometry relative="1" as="geometry" />
        </mxCell>
        <mxCell id="-OwCE8M7icj2krIlMeeb-273" style="rounded=0;orthogonalLoop=1;jettySize=auto;html=1;exitX=0;exitY=1;exitDx=0;exitDy=0;entryX=0.633;entryY=0.153;entryDx=0;entryDy=0;entryPerimeter=0;endArrow=none;endFill=0;" edge="1" parent="1" source="-OwCE8M7icj2krIlMeeb-191" target="-OwCE8M7icj2krIlMeeb-176">
          <mxGeometry relative="1" as="geometry" />
        </mxCell>
        <mxCell id="-OwCE8M7icj2krIlMeeb-274" style="rounded=0;orthogonalLoop=1;jettySize=auto;html=1;exitX=0;exitY=0;exitDx=0;exitDy=0;entryX=0.644;entryY=0.853;entryDx=0;entryDy=0;entryPerimeter=0;endArrow=none;endFill=0;" edge="1" parent="1" source="-OwCE8M7icj2krIlMeeb-185" target="-OwCE8M7icj2krIlMeeb-176">
          <mxGeometry relative="1" as="geometry" />
        </mxCell>
        <mxCell id="-OwCE8M7icj2krIlMeeb-275" style="rounded=0;orthogonalLoop=1;jettySize=auto;html=1;exitX=0;exitY=0;exitDx=0;exitDy=0;entryX=0.536;entryY=0.969;entryDx=0;entryDy=0;entryPerimeter=0;endArrow=none;endFill=0;" edge="1" parent="1" source="-OwCE8M7icj2krIlMeeb-186" target="-OwCE8M7icj2krIlMeeb-176">
          <mxGeometry relative="1" as="geometry" />
        </mxCell>
        <mxCell id="-OwCE8M7icj2krIlMeeb-276" value="incaricato" style="ellipse;html=1;align=center;labelPosition=center;verticalLabelPosition=bottom;verticalAlign=top;fillColor=#FFFFFF;strokeColor=default;fillStyle=auto;gradientColor=none;" vertex="1" parent="1">
          <mxGeometry x="885" y="-1053.25" width="10" height="10" as="geometry" />
        </mxCell>
        <mxCell id="-OwCE8M7icj2krIlMeeb-277" value="spostato_da" style="ellipse;html=1;align=center;labelPosition=center;verticalLabelPosition=bottom;verticalAlign=top;fillColor=#FFFFFF;strokeColor=default;fillStyle=auto;gradientColor=none;" vertex="1" parent="1">
          <mxGeometry x="840" y="-1097.25" width="10" height="10" as="geometry" />
        </mxCell>
        <mxCell id="-OwCE8M7icj2krIlMeeb-279" style="edgeStyle=orthogonalEdgeStyle;rounded=0;orthogonalLoop=1;jettySize=auto;html=1;exitX=0.5;exitY=0;exitDx=0;exitDy=0;entryX=0.5;entryY=1;entryDx=0;entryDy=0;endArrow=none;endFill=0;" edge="1" parent="1" source="-OwCE8M7icj2krIlMeeb-276" target="-OwCE8M7icj2krIlMeeb-154">
          <mxGeometry relative="1" as="geometry" />
        </mxCell>
        <mxCell id="-OwCE8M7icj2krIlMeeb-284" style="edgeStyle=orthogonalEdgeStyle;rounded=0;orthogonalLoop=1;jettySize=auto;html=1;exitX=0.5;exitY=1;exitDx=0;exitDy=0;endArrow=none;endFill=0;" edge="1" parent="1" source="-OwCE8M7icj2krIlMeeb-282">
          <mxGeometry relative="1" as="geometry">
            <mxPoint x="815" y="-1160" as="targetPoint" />
          </mxGeometry>
        </mxCell>
        <mxCell id="-OwCE8M7icj2krIlMeeb-282" value="modificato_da" style="ellipse;html=1;align=center;labelPosition=center;verticalLabelPosition=top;verticalAlign=bottom;fillColor=#FFFFFF;strokeColor=default;fillStyle=auto;gradientColor=none;" vertex="1" parent="1">
          <mxGeometry x="810" y="-1199.5" width="10" height="10" as="geometry" />
        </mxCell>
        <mxCell id="-OwCE8M7icj2krIlMeeb-286" style="edgeStyle=orthogonalEdgeStyle;rounded=1;orthogonalLoop=1;jettySize=auto;html=1;exitX=0;exitY=0.5;exitDx=0;exitDy=0;endArrow=none;endFill=0;curved=0;" edge="1" parent="1" source="-OwCE8M7icj2krIlMeeb-285">
          <mxGeometry relative="1" as="geometry">
            <mxPoint x="800" y="-1110" as="targetPoint" />
          </mxGeometry>
        </mxCell>
        <mxCell id="-OwCE8M7icj2krIlMeeb-285" value="" style="ellipse;whiteSpace=wrap;html=1;align=right;fontStyle=4;labelBackgroundColor=none;labelPosition=left;verticalLabelPosition=middle;verticalAlign=middle;fillColor=#000000;fontFamily=Helvetica;fontSize=11;fontColor=default;flipH=1;" vertex="1" parent="1">
          <mxGeometry x="827" y="-1179.75" width="10" height="10" as="geometry" />
        </mxCell>
        <mxCell id="-OwCE8M7icj2krIlMeeb-287" style="edgeStyle=orthogonalEdgeStyle;rounded=0;orthogonalLoop=1;jettySize=auto;html=1;exitX=0.5;exitY=0;exitDx=0;exitDy=0;entryX=0.215;entryY=1.035;entryDx=0;entryDy=0;entryPerimeter=0;endArrow=none;endFill=0;" edge="1" parent="1" source="-OwCE8M7icj2krIlMeeb-277" target="-OwCE8M7icj2krIlMeeb-154">
          <mxGeometry relative="1" as="geometry" />
        </mxCell>
        <mxCell id="-OwCE8M7icj2krIlMeeb-289" style="edgeStyle=orthogonalEdgeStyle;rounded=1;orthogonalLoop=1;jettySize=auto;html=1;exitX=0;exitY=0.5;exitDx=0;exitDy=0;endArrow=none;endFill=0;curved=0;" edge="1" parent="1" source="-OwCE8M7icj2krIlMeeb-288">
          <mxGeometry relative="1" as="geometry">
            <mxPoint x="790" y="-1150" as="targetPoint" />
          </mxGeometry>
        </mxCell>
        <mxCell id="-OwCE8M7icj2krIlMeeb-288" value="" style="ellipse;whiteSpace=wrap;html=1;align=right;fontStyle=4;labelBackgroundColor=none;labelPosition=left;verticalLabelPosition=middle;verticalAlign=middle;fillColor=#000000;fontFamily=Helvetica;fontSize=11;fontColor=default;flipH=1;" vertex="1" parent="1">
          <mxGeometry x="851" y="-1107.25" width="10" height="10" as="geometry" />
        </mxCell>
        <mxCell id="-OwCE8M7icj2krIlMeeb-291" style="edgeStyle=orthogonalEdgeStyle;rounded=1;orthogonalLoop=1;jettySize=auto;html=1;exitX=0;exitY=0.5;exitDx=0;exitDy=0;endArrow=none;endFill=0;curved=0;" edge="1" parent="1" source="-OwCE8M7icj2krIlMeeb-290">
          <mxGeometry relative="1" as="geometry">
            <mxPoint x="780" y="-1150" as="targetPoint" />
          </mxGeometry>
        </mxCell>
        <mxCell id="-OwCE8M7icj2krIlMeeb-290" value="" style="ellipse;whiteSpace=wrap;html=1;align=right;fontStyle=4;labelBackgroundColor=none;labelPosition=left;verticalLabelPosition=middle;verticalAlign=middle;fillColor=#000000;fontFamily=Helvetica;fontSize=11;fontColor=default;flipH=1;" vertex="1" parent="1">
          <mxGeometry x="900" y="-1070.25" width="10" height="10" as="geometry" />
        </mxCell>
        <mxCell id="-OwCE8M7icj2krIlMeeb-292" value="responsabile" style="ellipse;whiteSpace=wrap;html=1;align=left;labelPosition=right;verticalLabelPosition=middle;verticalAlign=middle;fillColor=#FFFFFF;strokeColor=default;fillStyle=auto;gradientColor=none;" vertex="1" parent="1">
          <mxGeometry x="498" y="-711" width="10" height="10" as="geometry" />
        </mxCell>
        <mxCell id="-OwCE8M7icj2krIlMeeb-294" value="team_responsabile" style="ellipse;whiteSpace=wrap;html=1;align=right;labelPosition=left;verticalLabelPosition=middle;verticalAlign=middle;fillColor=#FFFFFF;strokeColor=default;fillStyle=auto;gradientColor=none;" vertex="1" parent="1">
          <mxGeometry x="386" y="-589" width="10" height="10" as="geometry" />
        </mxCell>
        <mxCell id="-OwCE8M7icj2krIlMeeb-296" style="rounded=1;orthogonalLoop=1;jettySize=auto;html=1;exitX=0.5;exitY=1;exitDx=0;exitDy=0;endArrow=none;endFill=0;edgeStyle=orthogonalEdgeStyle;" edge="1" parent="1" source="-OwCE8M7icj2krIlMeeb-295">
          <mxGeometry relative="1" as="geometry">
            <mxPoint x="380" y="-670" as="targetPoint" />
            <Array as="points">
              <mxPoint x="487" y="-670" />
            </Array>
          </mxGeometry>
        </mxCell>
        <mxCell id="-OwCE8M7icj2krIlMeeb-295" value="" style="ellipse;whiteSpace=wrap;html=1;align=right;fontStyle=4;labelBackgroundColor=none;labelPosition=left;verticalLabelPosition=middle;verticalAlign=middle;fillColor=#000000;" vertex="1" parent="1">
          <mxGeometry x="482" y="-724" width="10" height="10" as="geometry" />
        </mxCell>
        <mxCell id="-OwCE8M7icj2krIlMeeb-298" style="edgeStyle=orthogonalEdgeStyle;rounded=0;orthogonalLoop=1;jettySize=auto;html=1;exitX=0.5;exitY=1;exitDx=0;exitDy=0;entryX=0.188;entryY=0.015;entryDx=0;entryDy=0;entryPerimeter=0;endArrow=none;endFill=0;" edge="1" parent="1" source="-OwCE8M7icj2krIlMeeb-294" target="-OwCE8M7icj2krIlMeeb-16">
          <mxGeometry relative="1" as="geometry" />
        </mxCell>
        <mxCell id="-OwCE8M7icj2krIlMeeb-301" style="edgeStyle=orthogonalEdgeStyle;rounded=0;orthogonalLoop=1;jettySize=auto;html=1;exitX=1;exitY=0.5;exitDx=0;exitDy=0;endArrow=none;endFill=0;" edge="1" parent="1" source="-OwCE8M7icj2krIlMeeb-300">
          <mxGeometry relative="1" as="geometry">
            <mxPoint x="480" y="-567.5999999999999" as="targetPoint" />
          </mxGeometry>
        </mxCell>
        <mxCell id="-OwCE8M7icj2krIlMeeb-300" value="" style="ellipse;whiteSpace=wrap;html=1;align=right;fontStyle=4;labelBackgroundColor=none;labelPosition=left;verticalLabelPosition=middle;verticalAlign=middle;fillColor=#000000;" vertex="1" parent="1">
          <mxGeometry x="371.2" y="-572.8" width="10" height="10" as="geometry" />
        </mxCell>
        <mxCell id="-OwCE8M7icj2krIlMeeb-308" style="rounded=0;orthogonalLoop=1;jettySize=auto;html=1;exitX=0;exitY=0;exitDx=0;exitDy=0;entryX=0.601;entryY=0.902;entryDx=0;entryDy=0;entryPerimeter=0;endArrow=none;endFill=0;" edge="1" parent="1" source="-OwCE8M7icj2krIlMeeb-199" target="-OwCE8M7icj2krIlMeeb-57">
          <mxGeometry relative="1" as="geometry" />
        </mxCell>
        <mxCell id="-OwCE8M7icj2krIlMeeb-311" value="destinatario" style="ellipse;whiteSpace=wrap;html=1;align=center;labelPosition=center;verticalLabelPosition=top;verticalAlign=bottom;fillStyle=auto;fontFamily=Helvetica;fontSize=11;" vertex="1" parent="1">
          <mxGeometry x="1307" y="-1444.71" width="10" height="10" as="geometry" />
        </mxCell>
        <mxCell id="-OwCE8M7icj2krIlMeeb-313" style="edgeStyle=orthogonalEdgeStyle;rounded=0;orthogonalLoop=1;jettySize=auto;html=1;exitX=0.5;exitY=1;exitDx=0;exitDy=0;entryX=0.347;entryY=0.028;entryDx=0;entryDy=0;entryPerimeter=0;" edge="1" parent="1" source="-OwCE8M7icj2krIlMeeb-311" target="-OwCE8M7icj2krIlMeeb-40">
          <mxGeometry relative="1" as="geometry" />
        </mxCell>
        <mxCell id="-OwCE8M7icj2krIlMeeb-316" value="" style="ellipse;whiteSpace=wrap;html=1;align=right;fontStyle=4;labelBackgroundColor=none;labelPosition=left;verticalLabelPosition=middle;verticalAlign=middle;fillColor=#000000;fontFamily=Helvetica;fontSize=11;fontColor=default;" vertex="1" parent="1">
          <mxGeometry x="1254" y="-949.5" width="10" height="10" as="geometry" />
        </mxCell>
      </root>
    </mxGraphModel>
  </diagram>
</mxfile>
